<svg width="20" height="20" viewBox="0 0 20 20" fill="none" xmlns="http://www.w3.org/2000/svg">
<g id="octicon:checkbox-16">
<path id="Vector" d="M3.4375 1.25H16.5625C17.77 1.25 18.75 2.23 18.75 3.4375V16.5625C18.75 17.1427 18.5195 17.6991 18.1093 18.1093C17.6991 18.5195 17.1427 18.75 16.5625 18.75H3.4375C2.85734 18.75 2.30094 18.5195 1.8907 18.1093C1.48047 17.6991 1.25 17.1427 1.25 16.5625V3.4375C1.25 2.23 2.23 1.25 3.4375 1.25ZM3.125 3.4375V16.5625C3.125 16.735 3.265 16.875 3.4375 16.875H16.5625C16.6454 16.875 16.7249 16.8421 16.7835 16.7835C16.8421 16.7249 16.875 16.6454 16.875 16.5625V3.4375C16.875 3.35462 16.8421 3.27513 16.7835 3.21653C16.7249 3.15792 16.6454 3.125 16.5625 3.125H3.4375C3.35462 3.125 3.27513 3.15792 3.21653 3.21653C3.15792 3.27513 3.125 3.35462 3.125 3.4375ZM14.725 7.85L9.1 13.475C8.92422 13.6506 8.68594 13.7492 8.4375 13.7492C8.18906 13.7492 7.95078 13.6506 7.775 13.475L5.275 10.975C5.10949 10.7972 5.01936 10.5621 5.02356 10.3192C5.02775 10.0763 5.12595 9.8445 5.2975 9.6725C5.4695 9.50095 5.70132 9.40275 5.94421 9.39856C6.18711 9.39436 6.42217 9.48449 6.6 9.65L8.4375 11.4875L13.4 6.525C13.5778 6.35949 13.8129 6.26936 14.0558 6.27356C14.2987 6.27775 14.5305 6.37595 14.7025 6.5475C14.8741 6.7195 14.9722 6.95132 14.9764 7.19421C14.9806 7.43711 14.8905 7.67217 14.725 7.85Z" fill="#1B9BEF"/>
</g>
</svg>
