<svg width="100" height="100" viewBox="0 0 100 100" fill="none" xmlns="http://www.w3.org/2000/svg">
<g id="formkit:uploadcloud">
<g id="Group 10">
<path id="Vector" d="M69.949 70.35C68.5198 70.35 67.3969 69.223 67.3969 67.7887C67.3969 66.3544 68.5198 65.2275 69.949 65.2275C78.3708 65.2275 85.2615 58.3121 85.2615 49.86C85.2615 41.4079 78.3708 34.4925 69.949 34.4925H64.5896C63.6708 34.4925 62.8542 34.0315 62.3948 33.2119C59.1281 27.5771 53.4115 24.2475 47.0312 24.2475C37.1802 24.2475 29.1667 32.2898 29.1667 42.1762C29.1667 43.6105 28.0437 44.7375 26.6146 44.7375H24.0625C18.4479 44.7375 13.8542 49.3477 13.8542 54.9825C13.8542 60.6172 18.4479 65.2275 24.0625 65.2275C25.4917 65.2275 26.6146 66.3544 26.6146 67.7887C26.6146 69.223 25.4917 70.35 24.0625 70.35C15.6406 70.35 8.75 63.4346 8.75 54.9825C8.75 46.5304 15.6406 39.615 24.0625 39.615H24.2156C25.4917 28.0894 35.2406 19.125 47.0312 19.125C54.6365 19.125 61.7823 23.0181 66.0187 29.37H70C81.2802 29.37 90.4167 38.5393 90.4167 49.86C90.4167 61.1807 81.2802 70.35 70 70.35H69.949Z" fill="#666666"/>
<path id="Vector_2" d="M59.7363 61.3784C59.4016 61.3825 59.0697 61.3163 58.762 61.1839C58.4544 61.0516 58.1777 60.8561 57.9498 60.61L46.9759 49.5967L36.0019 60.61C34.9811 61.6345 33.3988 61.6345 32.3779 60.61C31.3571 59.5855 31.3571 57.9976 32.3779 56.9731L45.1383 44.1668C46.1592 43.1423 47.7415 43.1423 48.7623 44.1668L61.5227 56.9731C62.5436 57.9976 62.5436 59.5855 61.5227 60.61C61.0123 61.1223 60.3488 61.3784 59.7363 61.3784Z" fill="#666666"/>
<path id="Vector_3" d="M46.9769 80.584C45.5477 80.584 44.4248 79.4571 44.4248 78.0228V47.2878C44.4248 45.8535 45.5477 44.7266 46.9769 44.7266C48.4061 44.7266 49.529 45.8535 49.529 47.2878V78.0228C49.529 79.4571 48.4061 80.584 46.9769 80.584Z" fill="#666666"/>
</g>
</g>
</svg>
