<svg width="48" height="48" viewBox="0 0 48 48" fill="none" xmlns="http://www.w3.org/2000/svg">
<g id="formkit:uploadcloud">
<g id="Group 10">
<path id="Vector" d="M33.5757 33.7645C32.8897 33.7645 32.3507 33.2236 32.3507 32.5351C32.3507 31.8466 32.8897 31.3057 33.5757 31.3057C37.6182 31.3057 40.9257 27.9863 40.9257 23.9293C40.9257 19.8723 37.6182 16.5529 33.5757 16.5529H31.0032C30.5622 16.5529 30.1702 16.3316 29.9497 15.9382C28.3817 13.2335 25.6377 11.6353 22.5752 11.6353C17.8467 11.6353 14.0002 15.4956 14.0002 20.2411C14.0002 20.9296 13.4612 21.4705 12.7752 21.4705H11.5502C8.8552 21.4705 6.6502 23.6834 6.6502 26.3881C6.6502 29.0928 8.8552 31.3057 11.5502 31.3057C12.2362 31.3057 12.7752 31.8466 12.7752 32.5351C12.7752 33.2236 12.2362 33.7645 11.5502 33.7645C7.5077 33.7645 4.2002 30.4451 4.2002 26.3881C4.2002 22.3311 7.5077 19.0117 11.5502 19.0117H11.6237C12.2362 13.4794 16.9157 9.17651 22.5752 9.17651C26.2257 9.17651 29.6557 11.0452 31.6892 14.0941H33.6002C39.0147 14.0941 43.4002 18.4954 43.4002 23.9293C43.4002 29.3633 39.0147 33.7645 33.6002 33.7645H33.5757Z" fill="#1B9BEF"/>
<path id="Vector_2" d="M28.6753 29.4617C28.5146 29.4636 28.3553 29.4319 28.2076 29.3683C28.06 29.3048 27.9272 29.211 27.8178 29.0929L22.5503 23.8064L17.2828 29.0929C16.7928 29.5846 16.0333 29.5846 15.5433 29.0929C15.0533 28.6011 15.0533 27.8389 15.5433 27.3471L21.6683 21.2001C22.1583 20.7084 22.9178 20.7084 23.4078 21.2001L29.5328 27.3471C30.0228 27.8389 30.0228 28.6011 29.5328 29.0929C29.2878 29.3387 28.9693 29.4617 28.6753 29.4617Z" fill="#1B9BEF"/>
<path id="Vector_3" d="M22.5507 38.6823C21.8647 38.6823 21.3257 38.1414 21.3257 37.4529V22.7001C21.3257 22.0116 21.8647 21.4707 22.5507 21.4707C23.2367 21.4707 23.7757 22.0116 23.7757 22.7001V37.4529C23.7757 38.1414 23.2367 38.6823 22.5507 38.6823Z" fill="#1B9BEF"/>
</g>
</g>
</svg>
