<svg width="40" height="40" viewBox="0 0 40 40" fill="none" xmlns="http://www.w3.org/2000/svg">
<g id="mingcute:up-fill">
<rect width="40" height="40" rx="20" fill="white"/>
<path id="Vector" fill-rule="evenodd" clip-rule="evenodd" d="M18.2344 13.2321C18.7031 12.7639 19.3385 12.501 20.001 12.501C20.6635 12.501 21.2989 12.7639 21.7677 13.2321L31.1977 22.6588C31.4298 22.891 31.6139 23.1667 31.7395 23.47C31.865 23.7734 31.9296 24.0985 31.9296 24.4269C31.9295 24.7552 31.8647 25.0803 31.739 25.3836C31.6133 25.6869 31.4291 25.9625 31.1969 26.1946C30.9646 26.4267 30.689 26.6108 30.3856 26.7364C30.0822 26.862 29.7571 26.9266 29.4288 26.9265C29.1004 26.9264 28.7753 26.8617 28.472 26.7359C28.1687 26.6102 27.8931 26.426 27.661 26.1938L20.001 18.5338L12.341 26.1938C12.1105 26.4327 11.8347 26.6232 11.5298 26.7544C11.2248 26.8856 10.8968 26.9547 10.5649 26.9577C10.2329 26.9608 9.90371 26.8977 9.59642 26.7721C9.28912 26.6466 9.0099 26.4611 8.77506 26.2264C8.54022 25.9918 8.35445 25.7128 8.22861 25.4056C8.10276 25.0984 8.03935 24.7692 8.04208 24.4373C8.0448 24.1053 8.11361 23.7773 8.24449 23.4722C8.37537 23.1671 8.56569 22.8912 8.80435 22.6604L18.2327 13.2304L18.2344 13.2321Z" fill="#222222"/>
</g>
</svg>
