<svg width="40" height="40" viewBox="0 0 40 40" fill="none" xmlns="http://www.w3.org/2000/svg">
<g id="mingcute:up-fill" clip-path="url(#clip0_57_636)">
<g id="Group">
<path id="Vector" fill-rule="evenodd" clip-rule="evenodd" d="M21.7656 26.7679C21.2969 27.2361 20.6615 27.499 19.999 27.499C19.3365 27.499 18.7011 27.2361 18.2323 26.7679L8.80231 17.3412C8.5702 17.109 8.3861 16.8333 8.26053 16.53C8.13495 16.2266 8.07036 15.9015 8.07043 15.5731C8.07051 15.2448 8.13526 14.9197 8.26098 14.6164C8.3867 14.3131 8.57092 14.0375 8.80315 13.8054C9.03536 13.5733 9.31103 13.3892 9.6144 13.2636C9.91777 13.138 10.2429 13.0734 10.5712 13.0735C10.8996 13.0736 11.2247 13.1383 11.528 13.2641C11.8313 13.3898 12.1069 13.574 12.339 13.8062L19.999 21.4662L27.659 13.8062C27.8895 13.5673 28.1653 13.3768 28.4702 13.2456C28.7752 13.1144 29.1032 13.0453 29.4351 13.0423C29.7671 13.0392 30.0963 13.1023 30.4036 13.2279C30.7109 13.3534 30.9901 13.5389 31.2249 13.7736C31.4598 14.0082 31.6455 14.2872 31.7714 14.5944C31.8972 14.9016 31.9606 15.2308 31.9579 15.5627C31.9552 15.8947 31.8864 16.2227 31.7555 16.5278C31.6246 16.8329 31.4343 17.1088 31.1956 17.3396L21.7673 26.7696L21.7656 26.7679Z" fill="#222222"/>
</g>
</g>
<defs>
<clipPath id="clip0_57_636">
<rect width="40" height="40" fill="white" transform="translate(40 40) rotate(180)"/>
</clipPath>
</defs>
</svg>
