<svg width="32" height="32" viewBox="0 0 32 32" fill="none" xmlns="http://www.w3.org/2000/svg">
<g id="noun-dashboard-2659277">
<g id="Group">
<path id="Vector" d="M9 3C7.81331 3 6.65328 3.35189 5.66658 4.01118C4.67989 4.67047 3.91085 5.60754 3.45673 6.7039C3.0026 7.80026 2.88378 9.00666 3.11529 10.1705C3.3468 11.3344 3.91825 12.4035 4.75736 13.2426C5.59648 14.0818 6.66558 14.6532 7.82946 14.8847C8.99335 15.1162 10.1997 14.9974 11.2961 14.5433C12.3925 14.0892 13.3295 13.3201 13.9888 12.3334C14.6481 11.3467 15 10.1867 15 9C15 7.4087 14.3679 5.88258 13.2426 4.75736C12.1174 3.63214 10.5913 3 9 3ZM9 13C8.20888 13 7.43552 12.7654 6.77772 12.3259C6.11993 11.8864 5.60724 11.2616 5.30448 10.5307C5.00173 9.79983 4.92252 8.99556 5.07686 8.21964C5.2312 7.44371 5.61217 6.73098 6.17158 6.17157C6.73099 5.61216 7.44372 5.2312 8.21964 5.07686C8.99557 4.92252 9.79983 5.00173 10.5307 5.30448C11.2616 5.60723 11.8864 6.11992 12.3259 6.77772C12.7654 7.43552 13 8.20887 13 9C13 10.0609 12.5786 11.0783 11.8284 11.8284C11.0783 12.5786 10.0609 13 9 13Z" fill="#777777"/>
<path id="Vector_2" d="M23 15C24.1867 15 25.3467 14.6481 26.3334 13.9888C27.3201 13.3295 28.0892 12.3925 28.5433 11.2961C28.9974 10.1997 29.1162 8.99335 28.8847 7.82946C28.6532 6.66558 28.0818 5.59648 27.2426 4.75736C26.4035 3.91825 25.3344 3.3468 24.1705 3.11529C23.0067 2.88378 21.8003 3.0026 20.7039 3.45673C19.6075 3.91085 18.6705 4.67989 18.0112 5.66658C17.3519 6.65328 17 7.81331 17 9C17 10.5913 17.6321 12.1174 18.7574 13.2426C19.8826 14.3679 21.4087 15 23 15ZM23 5C23.7911 5 24.5645 5.2346 25.2223 5.67412C25.8801 6.11365 26.3928 6.73836 26.6955 7.46927C26.9983 8.20017 27.0775 9.00444 26.9231 9.78036C26.7688 10.5563 26.3878 11.269 25.8284 11.8284C25.269 12.3878 24.5563 12.7688 23.7804 12.9231C23.0044 13.0775 22.2002 12.9983 21.4693 12.6955C20.7384 12.3928 20.1136 11.8801 19.6741 11.2223C19.2346 10.5645 19 9.79113 19 9C19 7.93914 19.4214 6.92172 20.1716 6.17158C20.9217 5.42143 21.9391 5 23 5Z" fill="#777777"/>
<path id="Vector_3" d="M23 17C21.8133 17 20.6533 17.3519 19.6666 18.0112C18.6799 18.6705 17.9109 19.6075 17.4567 20.7039C17.0026 21.8003 16.8838 23.0067 17.1153 24.1705C17.3468 25.3344 17.9182 26.4035 18.7574 27.2426C19.5965 28.0818 20.6656 28.6532 21.8295 28.8847C22.9933 29.1162 24.1997 28.9974 25.2961 28.5433C26.3925 28.0892 27.3295 27.3201 27.9888 26.3334C28.6481 25.3467 29 24.1867 29 23C29 21.4087 28.3679 19.8826 27.2426 18.7574C26.1174 17.6321 24.5913 17 23 17ZM23 27C22.2089 27 21.4355 26.7654 20.7777 26.3259C20.1199 25.8864 19.6072 25.2616 19.3045 24.5307C19.0017 23.7998 18.9225 22.9956 19.0769 22.2196C19.2312 21.4437 19.6122 20.731 20.1716 20.1716C20.731 19.6122 21.4437 19.2312 22.2196 19.0769C22.9956 18.9225 23.7998 19.0017 24.5307 19.3045C25.2616 19.6072 25.8864 20.1199 26.3259 20.7777C26.7654 21.4355 27 22.2089 27 23C27 24.0609 26.5786 25.0783 25.8284 25.8284C25.0783 26.5786 24.0609 27 23 27Z" fill="#777777"/>
<path id="Vector_4" d="M9 17C7.81331 17 6.65328 17.3519 5.66658 18.0112C4.67989 18.6705 3.91085 19.6075 3.45673 20.7039C3.0026 21.8003 2.88378 23.0067 3.11529 24.1705C3.3468 25.3344 3.91825 26.4035 4.75736 27.2426C5.59648 28.0818 6.66558 28.6532 7.82946 28.8847C8.99335 29.1162 10.1997 28.9974 11.2961 28.5433C12.3925 28.0892 13.3295 27.3201 13.9888 26.3334C14.6481 25.3467 15 24.1867 15 23C15 21.4087 14.3679 19.8826 13.2426 18.7574C12.1174 17.6321 10.5913 17 9 17ZM9 27C8.20888 27 7.43552 26.7654 6.77772 26.3259C6.11993 25.8864 5.60724 25.2616 5.30448 24.5307C5.00173 23.7998 4.92252 22.9956 5.07686 22.2196C5.2312 21.4437 5.61217 20.731 6.17158 20.1716C6.73099 19.6122 7.44372 19.2312 8.21964 19.0769C8.99557 18.9225 9.79983 19.0017 10.5307 19.3045C11.2616 19.6072 11.8864 20.1199 12.3259 20.7777C12.7654 21.4355 13 22.2089 13 23C13 24.0609 12.5786 25.0783 11.8284 25.8284C11.0783 26.5786 10.0609 27 9 27Z" fill="#777777"/>
</g>
</g>
</svg>
