<svg width="32" height="32" viewBox="0 0 32 32" fill="none" xmlns="http://www.w3.org/2000/svg">
<g id="noun-live-2146916 1">
<g id="Group">
<g id="Group_2">
<g id="Group_3">
<path id="Vector" d="M26.752 5.24811C26.304 4.80011 25.6 4.80011 25.184 5.24811C24.736 5.69611 24.736 6.40011 25.184 6.81611C27.616 9.28011 28.96 12.5121 28.96 16.0001C28.96 19.4561 27.616 22.7201 25.152 25.1521C24.704 25.6001 24.704 26.3041 25.152 26.7201C25.376 26.9441 25.664 27.0401 25.952 27.0401C26.24 27.0401 26.528 26.9441 26.752 26.7201C29.632 23.8401 31.2 20.0321 31.2 15.9681C31.2 11.9361 29.632 8.09611 26.752 5.24811Z" fill="#777777"/>
<path id="Vector_2" d="M3.04 16.0003C3.04 12.5123 4.384 9.28034 6.848 6.84834C7.296 6.40034 7.296 5.69634 6.848 5.28034C6.4 4.83234 5.696 4.83234 5.28 5.28034C2.368 8.09634 0.800003 11.9363 0.800003 16.0003C0.800003 20.0643 2.368 23.8723 5.248 26.7523C5.472 26.9763 5.76 27.0723 6.048 27.0723C6.336 27.0723 6.624 26.9763 6.848 26.7523C7.296 26.3043 7.296 25.6003 6.848 25.1843C4.384 22.7203 3.04 19.4563 3.04 16.0003Z" fill="#777777"/>
<path id="Vector_3" d="M22.976 9.02399C22.528 8.57599 21.824 8.57599 21.408 9.02399C20.96 9.47199 20.96 10.176 21.408 10.592C22.848 12.032 23.648 13.952 23.648 15.968C23.648 17.984 22.848 19.904 21.408 21.344C20.96 21.792 20.96 22.496 21.408 22.912C21.632 23.136 21.92 23.232 22.208 23.232C22.496 23.232 22.784 23.136 23.008 22.912C24.864 21.056 25.888 18.592 25.888 15.968C25.856 13.376 24.832 10.88 22.976 9.02399Z" fill="#777777"/>
<path id="Vector_4" d="M8.38401 16.0002C8.38401 13.9522 9.18401 12.0642 10.624 10.6242C11.072 10.1762 11.072 9.47221 10.624 9.05621C10.176 8.60821 9.47201 8.60821 9.05601 9.05621C7.20001 10.9122 6.17601 13.3762 6.17601 16.0322C6.17601 18.6562 7.23201 21.1842 9.08801 23.0082C9.31201 23.2322 9.60001 23.3282 9.88801 23.3282C10.176 23.3282 10.464 23.2322 10.688 23.0082C11.136 22.5602 11.104 21.8562 10.688 21.4402C9.18401 19.9682 8.38401 18.0162 8.38401 16.0002Z" fill="#777777"/>
<path id="Vector_5" d="M14.72 11.8082C14.048 11.3602 13.152 11.8402 13.152 12.6402V19.3282C13.152 20.1282 14.048 20.6082 14.72 20.1602L19.744 16.8002C20.352 16.3842 20.352 15.5202 19.744 15.1042L14.72 11.8082Z" fill="#777777"/>
</g>
</g>
</g>
</g>
</svg>
