<svg width="32" height="32" viewBox="0 0 32 32" fill="none" xmlns="http://www.w3.org/2000/svg">
<g id="noun-user-settings-4671204">
<path id="Vector" d="M22.5333 16.6133C23.4533 15.3067 24 13.72 24 12C24 7.58667 20.4133 4 16 4C11.5867 4 8 7.58667 8 12C8 13.72 8.54667 15.3067 9.46667 16.6133C6.53333 18.52 4.48 21.68 4.08 25.3333C4.02667 25.7733 4 26.2133 4 26.6667C4 27.4 4.6 28 5.33333 28H16V25.3333H6.77333C7.14667 22.68 8.64 20.3333 10.92 18.8533L13.24 17.3467L11.6533 15.08C11 14.1733 10.6667 13.1067 10.6667 12C10.6667 9.05333 13.0533 6.66667 16 6.66667C18.9467 6.66667 21.3333 9.05333 21.3333 12C21.3333 13.1067 21 14.1733 20.3467 15.08L18.76 17.3467L20.7867 18.6667H24.9333C24.2267 17.88 23.4133 17.2 22.5333 16.6133ZM30.8147 26.6667C30.8147 26.5253 30.8067 26.3867 30.7933 26.2493L31.8773 25.0267L30.692 22.9733L29.0853 23.3027C28.8613 23.1413 28.6227 23.0027 28.368 22.888L27.852 21.3333H25.4813L24.964 22.8867C24.7107 23.0013 24.4707 23.1413 24.2467 23.3013L22.64 22.9733L21.4547 25.0267L22.5387 26.2493C22.5253 26.3867 22.5173 26.5253 22.5173 26.6667C22.5173 26.808 22.5253 26.9467 22.5387 27.084L21.4547 28.3067L22.64 30.36L24.2467 30.0307C24.4707 30.192 24.7093 30.3307 24.964 30.4453L25.4813 32H27.852L28.3693 30.4467C28.6227 30.332 28.8627 30.192 29.0867 30.032L30.6933 30.3613L31.8787 28.308L30.7947 27.0853C30.808 26.9467 30.8147 26.808 30.8147 26.6667ZM25.1053 27.568V25.7653L26.6667 24.864L28.228 25.7653V27.568L26.6667 28.4693L25.1053 27.568Z" fill="white"/>
</g>
</svg>
