<svg width="40" height="40" viewBox="0 0 40 40" fill="none" xmlns="http://www.w3.org/2000/svg">
<g id="noun-camera-6228850 1">
<path id="Vector" d="M20 27.1875C22.934 27.1875 25.3125 24.809 25.3125 21.875C25.3125 18.941 22.934 16.5625 20 16.5625C17.066 16.5625 14.6875 18.941 14.6875 21.875C14.6875 24.809 17.066 27.1875 20 27.1875Z" fill="white"/>
<path id="Vector_2" d="M28.75 9.33518H26.9875L25.6125 6.85205C25.2885 6.26518 24.8131 5.7759 24.2358 5.43515C23.6585 5.09439 23.0004 4.91462 22.33 4.91455H22.3025L17.6775 4.94893C17.0215 4.95515 16.3785 5.13279 15.8124 5.46421C15.2462 5.79564 14.7766 6.26933 14.45 6.8383L13.0231 9.33455H11.25C9.59296 9.33637 8.0043 9.99544 6.83259 11.1671C5.66088 12.3389 5.00182 13.9275 5 15.5846V28.7095C5.00198 30.3665 5.6611 31.9551 6.83277 33.1268C8.00445 34.2984 9.59301 34.9576 11.25 34.9595H28.75C30.407 34.9576 31.9956 34.2984 33.1672 33.1268C34.3389 31.9551 34.998 30.3665 35 28.7095V15.5846C34.998 13.9276 34.3389 12.3391 33.1672 11.1675C31.9955 9.99597 30.4069 9.337 28.75 9.33518ZM20 29.0614C18.5784 29.0614 17.1888 28.6399 16.0068 27.8501C14.8249 27.0603 13.9036 25.9378 13.3596 24.6245C12.8156 23.3111 12.6733 21.866 12.9506 20.4717C13.2279 19.0775 13.9125 17.7968 14.9177 16.7916C15.9229 15.7864 17.2036 15.1019 18.5978 14.8245C19.992 14.5472 21.4372 14.6895 22.7505 15.2335C24.0639 15.7775 25.1864 16.6988 25.9762 17.8808C26.766 19.0627 27.1875 20.4524 27.1875 21.8739C27.1854 23.7795 26.4274 25.6064 25.08 26.9539C23.7325 28.3013 21.9056 29.0593 20 29.0614Z" fill="white"/>
</g>
</svg>
