<svg width="32" height="32" viewBox="0 0 32 32" fill="none" xmlns="http://www.w3.org/2000/svg">
<g id="noun-relationship-3465121 1">
<g id="Layer 2">
<path id="Vector" d="M30.08 8.96014C29.9836 8.88584 29.8717 8.83405 29.7527 8.80858C29.6336 8.78311 29.5104 8.7846 29.392 8.81294L26.3232 9.60014C25.1904 9.53614 21.5776 8.14734 19.52 7.26414L19.4784 7.24814C16.7456 6.26574 14.3808 6.48654 12.4032 7.88814C9.77281 6.98894 6.40321 8.88654 5.36321 9.53614L2.59841 8.82574C2.48027 8.79484 2.35661 8.79151 2.23698 8.81601C2.11735 8.8405 2.00495 8.89217 1.90846 8.96701C1.81197 9.04185 1.73397 9.13787 1.68049 9.24765C1.62701 9.35743 1.59947 9.47803 1.60001 9.60014V20.8001C1.60001 21.0123 1.6843 21.2158 1.83433 21.3658C1.98436 21.5159 2.18784 21.6001 2.40001 21.6001H4.09921L11.3728 27.3345C11.652 27.6031 11.992 27.8001 12.3638 27.9087C12.7357 28.0173 13.1283 28.0343 13.5081 27.9582C13.8879 27.8821 14.2437 27.7152 14.545 27.4717C14.8463 27.2283 15.0842 26.9155 15.2384 26.5601C15.6009 26.7678 16.011 26.8781 16.4288 26.8801C16.8978 26.8803 17.3565 26.7432 17.7483 26.4855C18.1401 26.2279 18.4479 25.8611 18.6336 25.4305C18.9954 25.6399 19.406 25.7502 19.824 25.7505C20.2924 25.7501 20.7504 25.6126 21.1416 25.3551C21.5328 25.0975 21.8401 24.731 22.0256 24.3009C22.395 24.5107 22.8136 24.6184 23.2384 24.6129C23.6632 24.6074 24.0789 24.489 24.4428 24.2697C24.8067 24.0505 25.1056 23.7383 25.309 23.3653C25.5124 22.9924 25.6128 22.572 25.6 22.1473L27.312 21.6001H29.6C29.8122 21.6001 30.0157 21.5159 30.1657 21.3658C30.3157 21.2158 30.4 21.0123 30.4 20.8001V9.60014C30.4005 9.47586 30.3718 9.35319 30.3162 9.24203C30.2607 9.13087 30.1797 9.03431 30.08 8.96014ZM3.20001 10.6241L4.63041 10.9921L4.05761 16.3201L3.66081 20.0001H3.20001V10.6241ZM23.7824 22.7713C23.6303 22.918 23.4273 22.9999 23.216 22.9999C23.0047 22.9999 22.8017 22.918 22.6496 22.7713L21.52 21.6417L16.9952 17.1137C16.8432 16.9771 16.6446 16.9037 16.4402 16.9089C16.2359 16.914 16.0412 16.9972 15.8962 17.1413C15.7513 17.2855 15.667 17.4797 15.6607 17.684C15.6544 17.8884 15.7266 18.0873 15.8624 18.2401L20.3904 22.7745C20.5359 22.9256 20.6163 23.1278 20.6142 23.3376C20.6121 23.5474 20.5277 23.7479 20.3791 23.896C20.2306 24.0441 20.0298 24.128 19.82 24.1295C19.6103 24.131 19.4083 24.0501 19.2576 23.9041L18.1248 22.7713L14.72 19.3761C14.6456 19.3018 14.5573 19.2428 14.4601 19.2025C14.363 19.1623 14.2588 19.1415 14.1536 19.1415C14.0484 19.1415 13.9443 19.1623 13.8471 19.2025C13.7499 19.2428 13.6616 19.3018 13.5872 19.3761C13.5128 19.4505 13.4538 19.5388 13.4136 19.636C13.3733 19.7332 13.3526 19.8374 13.3526 19.9425C13.3526 20.0477 13.3733 20.1519 13.4136 20.2491C13.4538 20.3463 13.5128 20.4346 13.5872 20.5089L16.9952 23.9041C17.0715 23.978 17.1323 24.0664 17.1741 24.1641C17.2159 24.2617 17.2378 24.3667 17.2386 24.473C17.2393 24.5792 17.219 24.6845 17.1786 24.7827C17.1382 24.881 17.0787 24.9702 17.0035 25.0452C16.9283 25.1202 16.8389 25.1795 16.7405 25.2196C16.6421 25.2597 16.5368 25.2798 16.4305 25.2787C16.3243 25.2776 16.2194 25.2554 16.1218 25.2134C16.0243 25.1713 15.9361 25.1102 15.8624 25.0337L12.48 21.6417C12.406 21.5673 12.318 21.5083 12.221 21.468C12.1241 21.4277 12.0202 21.407 11.9152 21.407C11.8102 21.407 11.7063 21.4277 11.6094 21.468C11.5125 21.5083 11.4245 21.5673 11.3504 21.6417C11.2758 21.7153 11.2167 21.803 11.1766 21.8997C11.1365 21.9964 11.1162 22.1002 11.1168 22.2049C11.1165 22.3101 11.1369 22.4143 11.177 22.5115C11.2171 22.6087 11.276 22.697 11.3504 22.7713L13.6128 25.0337C13.7625 25.1842 13.8465 25.3879 13.8465 25.6001C13.8465 25.8124 13.7625 26.016 13.6128 26.1665C13.46 26.3117 13.2572 26.3927 13.0464 26.3927C12.8356 26.3927 12.6329 26.3117 12.48 26.1665C12.4581 26.1436 12.4346 26.1222 12.4096 26.1025L5.21921 20.4449L6.02241 13.0241L6.25601 10.8609C7.27361 10.2209 9.26081 9.23214 10.9088 9.26094C10.419 9.82643 9.98102 10.4347 9.60001 11.0785C9.24708 11.6799 9.13471 12.3926 9.28547 13.0734C9.43624 13.7542 9.83897 14.3528 10.4128 14.7489C11.5456 15.5233 13.6128 16.2433 16.1728 14.0321L23.7824 21.6385C23.9313 21.7895 24.0148 21.9929 24.0148 22.2049C24.0148 22.417 23.9313 22.6204 23.7824 22.7713ZM25.04 20.6497C25.001 20.6006 24.9594 20.5535 24.9152 20.5089L17.2992 12.8929C17.6192 12.5281 17.9392 12.1217 18.2592 11.6609C18.332 11.5765 18.3863 11.4779 18.4187 11.3713C18.4511 11.2647 18.4608 11.1525 18.4474 11.0419C18.4339 10.9313 18.3975 10.8247 18.3404 10.729C18.2834 10.6333 18.207 10.5506 18.1161 10.4862C18.0252 10.4217 17.9219 10.3769 17.8127 10.3547C17.7035 10.3325 17.5909 10.3333 17.4821 10.3572C17.3732 10.381 17.2706 10.4273 17.1807 10.4931C17.0908 10.5589 17.0156 10.6428 16.96 10.7393C15.5392 12.7521 13.4144 14.8513 11.328 13.4273C11.0911 13.2586 10.9266 13.0067 10.8672 12.722C10.8079 12.4373 10.8582 12.1406 11.008 11.8913C11.5266 10.9648 12.2048 10.1372 13.0112 9.44654C13.0372 9.42804 13.0617 9.40772 13.0848 9.38574C14.6848 8.10574 16.6048 7.91054 18.9344 8.74574C19.5392 9.00174 23.568 10.7073 25.68 11.1137L26.384 20.2305L25.04 20.6497ZM28.8 20.0001H27.9424L27.248 11.0113L28.8 10.6241V20.0001Z" fill="#777777"/>
</g>
</g>
</svg>
