<svg width="48" height="48" viewBox="0 0 48 48" fill="none" xmlns="http://www.w3.org/2000/svg">
<g id="noun-add-account-6047901 1">
<g id="Group 41">
<path id="Vector" d="M42.3295 31.3935H37.9538V27.08C37.9538 26.8619 37.909 26.6541 37.8279 26.465C37.7873 26.3705 37.7377 26.2807 37.6801 26.1966C37.4497 25.8604 37.0914 25.6163 36.674 25.5321C36.5697 25.5111 36.4617 25.5 36.351 25.5H34.5813C34.4706 25.5 34.3626 25.5111 34.2583 25.5321C33.8409 25.6163 33.4826 25.8604 33.2522 26.1966C33.1946 26.2807 33.145 26.3705 33.1044 26.465C33.0233 26.6541 32.9784 26.8619 32.9784 27.08V31.3935H28.6028C27.7176 31.3935 27 32.1009 27 32.9736V34.7182C27 35.5908 27.7176 36.2982 28.6028 36.2982H31.0253L32.9784 36.2982V40.6117C32.9784 41.4844 33.6961 42.1918 34.5813 42.1918H36.351C37.2362 42.1918 37.9538 41.4844 37.9538 40.6117V36.2982H42.3295C43.2147 36.2982 43.9323 35.5908 43.9323 34.7182V32.9736C43.9323 32.1009 43.2147 31.3935 42.3295 31.3935Z" fill="#1B9BEF"/>
<path id="Vector_2" d="M27.7889 37.5062C26.1333 38.0923 24.3541 38.4144 22.5 38.4144C17.6904 38.4144 13.3756 36.2666 10.4549 32.8832C11.7569 29.1452 14.9467 26.2922 18.8891 25.4822C17.0516 24.2949 15.8322 22.2328 15.8322 19.8823V18.0934C15.8322 14.4109 18.8176 11.4257 22.5 11.4257C26.1824 11.4257 29.1678 14.4109 29.1678 18.0934V19.8823C29.1678 22.2328 27.9484 24.2949 26.1109 25.4822C27.9338 25.8567 29.5921 26.6722 30.9809 27.8058V27.5156C30.9809 25.6322 32.5132 24.1 34.3966 24.1H35.9597C37.8431 24.1 39.3753 25.6322 39.3753 27.5156V28.76C40.1014 26.8092 40.5 24.7004 40.5 22.4998C40.5 12.5746 32.425 4.5 22.5 4.5C12.575 4.5 4.5 12.5746 4.5 22.4998C4.5 32.4251 12.575 40.5 22.5 40.5C25.5648 40.5 28.4522 39.7281 30.9809 38.3714V37.7747H29.1162C28.6457 37.7747 28.1972 37.679 27.7889 37.5062Z" fill="#1B9BEF"/>
</g>
</g>
</svg>
