<svg width="100" height="100" viewBox="0 0 100 100" fill="none" xmlns="http://www.w3.org/2000/svg">
<g id="noun-buyer-5533532 1">
<g id="Group">
<path id="Vector" d="M32.8125 35.9374C40.5663 35.9374 46.875 29.6287 46.875 21.8749C46.1366 3.23272 19.4855 3.23797 18.75 21.8751C18.75 29.6287 25.0587 35.9374 32.8125 35.9374ZM32.8125 10.9374C38.8435 10.9374 43.75 15.8439 43.75 21.8749C43.2365 36.3508 22.3863 36.3471 21.875 21.8748C21.875 15.8439 26.7815 10.9374 32.8125 10.9374Z" fill="#333333"/>
<path id="Vector_2" d="M46.5622 76.5625H10.9375V60.9375C10.9375 50.5989 19.3489 42.1875 29.6875 42.1875H35.9375C42.9245 42.1875 49.2798 46.022 52.5238 52.1957C53.4656 54.0024 56.2411 52.552 55.2886 50.7415C51.5045 43.5379 44.0887 39.0625 35.9375 39.0625H29.6875C17.6254 39.0625 7.8125 48.8754 7.8125 60.9375V78.125C7.8125 78.9879 8.51212 79.6875 9.375 79.6875H46.5622C48.5988 79.6698 48.6128 76.5782 46.5622 76.5625Z" fill="#333333"/>
<path id="Vector_3" d="M70.3125 48.4375C58.2504 48.4375 48.4375 58.2504 48.4375 70.3125C49.6389 99.3327 90.9906 99.3243 92.1875 70.3123C92.1875 58.2504 82.3746 48.4375 70.3125 48.4375ZM70.3125 89.0625C59.9731 89.0625 51.5625 80.6511 51.5625 70.3125C52.5922 45.438 88.0366 45.4452 89.0625 70.3126C89.0625 80.6511 80.6519 89.0625 70.3125 89.0625Z" fill="#333333"/>
<path id="Vector_4" d="M78.125 62.5H75V60.9375C75 58.3527 72.8973 56.25 70.3125 56.25C67.7277 56.25 65.625 58.3527 65.625 60.9375V62.5H62.5C61.6974 62.5 61.0245 63.1081 60.9451 63.9069L59.3826 79.5319C59.2742 80.4226 60.0397 81.2702 60.9375 81.25L79.6875 81.25C80.5839 81.2692 81.3521 80.4235 81.2423 79.5318L79.6799 63.9069C79.6005 63.1081 78.9276 62.5 78.125 62.5ZM68.75 60.9375C68.7606 58.8944 71.8648 58.895 71.875 60.9376L71.875 62.5H68.75V60.9375ZM62.6648 78.125L63.9145 65.625H65.625V67.1875C65.625 68.0504 66.3238 68.75 67.1875 68.75C68.0511 68.75 68.75 68.0504 68.75 67.1875V65.625H71.875V67.1875C71.875 68.0504 72.5738 68.75 73.4375 68.75C74.3011 68.75 75 68.0504 75 67.1875V65.625H76.7105L77.9602 78.125H62.6648Z" fill="#333333"/>
</g>
</g>
</svg>
