<svg width="100" height="100" viewBox="0 0 100 100" fill="none" xmlns="http://www.w3.org/2000/svg">
<g id="noun-preview-192680 1">
<path id="Vector" d="M45.3263 18.3928C45.3263 21.25 43.0335 23.3928 40.388 23.3928C37.5661 23.3928 35.4497 21.0714 35.4497 18.3928H27.866V33.5714H52.9101V18.3928H45.3263Z" stroke="#333333" stroke-width="3" stroke-miterlimit="10" stroke-linecap="round" stroke-linejoin="round"/>
<path id="Vector_2" d="M40.2116 23.3928C42.939 23.3928 45.1499 21.1542 45.1499 18.3928C45.1499 15.6314 42.939 13.3928 40.2116 13.3928C37.4843 13.3928 35.2734 15.6314 35.2734 18.3928C35.2734 21.1542 37.4843 23.3928 40.2116 23.3928Z" stroke="#333333" stroke-width="3" stroke-miterlimit="10" stroke-linecap="round" stroke-linejoin="round"/>
<path id="Vector_3" d="M30.3353 54.9998H45.3265" stroke="#333333" stroke-width="3" stroke-miterlimit="10" stroke-linecap="round" stroke-linejoin="round"/>
<path id="Vector_4" d="M30.3351 44.2856H50.2645" stroke="#333333" stroke-width="3" stroke-miterlimit="10" stroke-linecap="round" stroke-linejoin="round"/>
<path id="Vector_5" d="M30.3353 65.7139H45.3265" stroke="#333333" stroke-width="3" stroke-miterlimit="10" stroke-linecap="round" stroke-linejoin="round"/>
<path id="Vector_6" d="M52.7337 55C52.7337 48.0357 58.3774 42.3214 65.2557 42.3214V22.1428H52.7337V33.5714H27.6896V22.1428H15.3439V78.3928C15.3439 83.5714 19.5767 87.8571 24.6914 87.8571H55.9083C61.0229 87.8571 65.2557 83.5714 65.2557 78.3928V67.6785C58.3774 67.6785 52.7337 61.9643 52.7337 55Z" stroke="#333333" stroke-width="3" stroke-miterlimit="10" stroke-linecap="round" stroke-linejoin="round"/>
<path id="Vector_7" d="M52.7337 55C52.7337 50.8928 54.6737 47.1428 57.672 44.8214V29.6428H52.7337V33.3928H27.6896V29.6428H22.7513V78.3928H57.672V65C54.6737 62.8571 52.7337 59.1071 52.7337 55Z" stroke="#333333" stroke-width="3" stroke-miterlimit="10" stroke-linecap="round" stroke-linejoin="round"/>
<path id="Vector_8" d="M65.2557 67.6787C72.1715 67.6787 77.7778 62.0023 77.7778 55.0001C77.7778 47.9979 72.1715 42.3215 65.2557 42.3215C58.34 42.3215 52.7337 47.9979 52.7337 55.0001C52.7337 62.0023 58.34 67.6787 65.2557 67.6787Z" stroke="#333333" stroke-width="3" stroke-miterlimit="10" stroke-linecap="round" stroke-linejoin="round"/>
<path id="Vector_9" d="M74.0741 63.9285L84.6561 74.8213" stroke="#333333" stroke-width="3" stroke-miterlimit="10" stroke-linecap="round" stroke-linejoin="round"/>
<path id="Vector_10" d="M73.1908 51.7045C73.1826 51.671 73.1721 51.6381 73.1595 51.606L73.1477 51.5732C73.1302 51.5329 73.1092 51.4941 73.085 51.4573L73.0674 51.4322C73.0465 51.4037 73.0236 51.3766 72.9989 51.3512L72.9714 51.3241C72.9444 51.299 72.9156 51.2758 72.8853 51.2546L72.8637 51.2392C72.83 51.2172 72.7947 51.1979 72.758 51.1813L66.3946 48.2853C66.2917 48.2386 66.1798 48.2144 66.0665 48.2144C65.9533 48.2144 65.8413 48.2386 65.7385 48.2853L59.3751 51.1813C59.3384 51.1979 59.3031 51.2172 59.2694 51.2392L59.2478 51.2546C59.2175 51.2758 59.1887 51.299 59.1617 51.3241L59.1342 51.3512C59.1095 51.3766 59.0866 51.4037 59.0657 51.4322L59.0481 51.4573C59.0239 51.4941 59.0029 51.5329 58.9854 51.5732L58.9736 51.606C58.961 51.6381 58.9505 51.671 58.9423 51.7045C58.9423 51.718 58.9423 51.7315 58.9423 51.745C58.9335 51.7908 58.9289 51.8374 58.9286 51.884V58.8323C58.9288 58.9799 58.9718 59.1244 59.0527 59.2486C59.1336 59.3728 59.2489 59.4715 59.3849 59.5332L65.7483 62.4291C65.8511 62.4759 65.9631 62.5001 66.0763 62.5001C66.1896 62.5001 66.3015 62.4759 66.4044 62.4291L72.7677 59.5332C72.902 59.4701 73.0152 59.3708 73.0943 59.2467C73.1734 59.1226 73.215 58.9789 73.2143 58.8323V51.8821C73.214 51.8354 73.2094 51.7889 73.2006 51.7431C73.1967 51.7296 73.1947 51.718 73.1908 51.7045ZM66.0675 49.8414L70.5585 51.8821L66.0675 53.9228L61.5766 51.8821L66.0675 49.8414ZM60.4876 53.0887L65.2841 55.2665V60.5158L60.4876 58.3381V53.0887ZM66.8509 60.5158V55.2665L71.6474 53.0887V58.3381L66.8509 60.5158Z" fill="#333333"/>
</g>
</svg>
