<svg width="32" height="32" viewBox="0 0 32 32" fill="none" xmlns="http://www.w3.org/2000/svg">
<g id="noun-profile-1543074">
<path id="Vector" d="M19.328 15.7758C20.6159 15.0417 21.6249 13.9022 22.1978 12.5349C22.7708 11.1677 22.8755 9.64933 22.4958 8.21633C22.116 6.78334 21.2731 5.51614 20.0982 4.61206C18.9233 3.70798 17.4825 3.21777 16 3.21777C14.5175 3.21777 13.0767 3.70798 11.9018 4.61206C10.7269 5.51614 9.88398 6.78334 9.50422 8.21633C9.12447 9.64933 9.22922 11.1677 9.80217 12.5349C10.3751 13.9022 11.3841 15.0417 12.672 15.7758C10.5387 16.485 8.68139 17.845 7.36119 19.6646C6.04099 21.4842 5.32433 23.6718 5.312 25.9198V26.1758C5.312 26.8548 5.58171 27.5059 6.0618 27.986C6.5419 28.4661 7.19304 28.7358 7.872 28.7358H24.128C24.807 28.7358 25.4581 28.4661 25.9382 27.986C26.4183 27.5059 26.688 26.8548 26.688 26.1758V25.9198C26.6757 23.6718 25.959 21.4842 24.6388 19.6646C23.3186 17.845 21.4613 16.485 19.328 15.7758ZM16 5.82382C16.8241 5.82385 17.6297 6.06866 18.3145 6.52719C18.9992 6.98573 19.5324 7.63733 19.8463 8.39934C20.1602 9.16135 20.2407 9.99942 20.0776 10.8072C19.9144 11.6151 19.515 12.3562 18.9301 12.9367C18.3451 13.5172 17.6008 13.9109 16.7918 14.0678C15.9827 14.2246 15.1453 14.1377 14.3857 13.8179C13.6262 13.4981 12.9787 12.96 12.5255 12.2716C12.0722 11.5833 11.8337 10.7759 11.84 9.95182C11.8484 8.85408 12.2905 7.80417 13.0697 7.03092C13.8489 6.25768 14.9022 5.82379 16 5.82382ZM24.128 26.1758H7.872V25.9198C7.872 23.7641 8.72834 21.6968 10.2526 20.1725C11.7769 18.6482 13.8443 17.7918 16 17.7918C18.1557 17.7918 20.2231 18.6482 21.7474 20.1725C23.2717 21.6968 24.128 23.7641 24.128 25.9198V26.1758Z" fill="#777777"/>
</g>
</svg>
