<svg width="32" height="32" viewBox="0 0 32 32" fill="none" xmlns="http://www.w3.org/2000/svg">
<g id="noun-shopping-order-4316461" clip-path="url(#clip0_210_150)">
<path id="Vector" d="M17.1808 23.1307H5.65124L4.77434 20.3806C4.71181 20.1845 4.58855 20.0134 4.42238 19.8919C4.2562 19.7705 4.05572 19.7051 3.84991 19.7051H1.2739C1.01684 19.7055 0.770442 19.8079 0.588815 19.9898C0.407188 20.1717 0.305176 20.4183 0.305176 20.6754C0.305176 20.9324 0.407188 21.179 0.588815 21.3609C0.770442 21.5428 1.01684 21.6452 1.2739 21.6456H3.1134L4.86865 29.6047C4.9607 30.083 5.21649 30.5143 5.59206 30.8245C5.96763 31.1347 6.43951 31.3043 6.92661 31.3043H14.5616C14.8395 31.3042 15.1117 31.2256 15.3468 31.0776C15.582 30.9296 15.7706 30.7182 15.891 30.4677L18.5125 25.2479C18.6209 25.0227 18.6704 24.7737 18.6564 24.5241C18.6423 24.2746 18.5651 24.0327 18.432 23.8211C18.299 23.6095 18.1144 23.4352 17.8955 23.3144C17.6767 23.1937 17.4307 23.1305 17.1808 23.1307Z" fill="#777777"/>
<path id="Vector_2" d="M18.3836 10.3482H26.2223C26.3753 10.3486 26.5269 10.3187 26.6683 10.2604C26.8098 10.202 26.9384 10.1164 27.0467 10.0083C27.155 9.9002 27.2409 9.77182 27.2995 9.63048C27.3582 9.48915 27.3883 9.33764 27.3883 9.18462C27.3883 9.03161 27.3582 8.8801 27.2995 8.73877C27.2409 8.59743 27.155 8.46905 27.0467 8.36096C26.9384 8.25288 26.8098 8.16722 26.6683 8.10888C26.5269 8.05055 26.3753 8.02068 26.2223 8.021H18.3836C18.0754 8.02164 17.78 8.14452 17.5623 8.36267C17.3446 8.58082 17.2224 8.87643 17.2224 9.18462C17.2224 9.49282 17.3446 9.78843 17.5623 10.0066C17.78 10.2247 18.0754 10.3476 18.3836 10.3482Z" fill="#777777"/>
<path id="Vector_3" d="M13.8802 10.512C14.6135 10.3389 15.0676 9.60411 14.8945 8.8708C14.7214 8.1375 13.9866 7.68337 13.2533 7.85648C12.52 8.02959 12.0659 8.76438 12.239 9.49769C12.4121 10.231 13.1469 10.6851 13.8802 10.512Z" fill="#777777"/>
<path id="Vector_4" d="M18.3836 12.9067H26.2223C26.5309 12.9067 26.8269 13.0293 27.0451 13.2476C27.2633 13.4658 27.3859 13.7617 27.3859 14.0704C27.3859 14.379 27.2633 14.6749 27.0451 14.8932C26.8269 15.1114 26.5309 15.234 26.2223 15.234H18.3836C18.075 15.234 17.779 15.1114 17.5608 14.8932C17.3426 14.675 17.22 14.379 17.22 14.0704C17.22 13.7618 17.3426 13.4658 17.5608 13.2476C17.779 13.0293 18.075 12.9067 18.3836 12.9067Z" fill="#777777"/>
<path id="Vector_5" d="M14.5314 15.035C15.0642 14.5022 15.0642 13.6384 14.5314 13.1056C13.9986 12.5729 13.1348 12.5729 12.6021 13.1056C12.0693 13.6384 12.0693 14.5022 12.6021 15.035C13.1348 15.5678 13.9986 15.5678 14.5314 15.035Z" fill="#777777"/>
<path id="Vector_6" d="M31.0353 1.02947C30.8395 0.947445 30.6238 0.925097 30.4153 0.965233C30.2068 1.00537 30.0148 1.1062 29.8635 1.25507L27.425 3.65357L24.4284 1.19074C24.2393 1.0355 24.003 0.949201 23.7584 0.946033C23.5137 0.942865 23.2753 1.02301 23.0822 1.1733L19.8123 3.72152L16.733 1.19074C16.5383 1.03083 16.2936 0.944224 16.0416 0.945954C15.7896 0.947684 15.5462 1.03764 15.3536 1.2002L12.4272 3.67341L9.68815 1.2205C9.53317 1.08175 9.34133 0.990824 9.1358 0.958714C8.93027 0.926605 8.71984 0.954679 8.52992 1.03955C8.34 1.12442 8.1787 1.26245 8.06552 1.43698C7.95233 1.61152 7.89208 1.81508 7.89206 2.0231V21.1299H10.0468V4.43408L11.688 5.90386C11.8817 6.07721 12.1315 6.17474 12.3913 6.17847C12.6512 6.18219 12.9037 6.09188 13.1022 5.92416L16.0586 3.42556L19.1104 5.93363C19.2994 6.08901 19.5357 6.17539 19.7804 6.17856C20.0251 6.18173 20.2636 6.10149 20.4566 5.95106L23.7265 3.40287L26.8056 5.93362C27.0111 6.10258 27.2719 6.1895 27.5377 6.17762C27.8035 6.16574 28.0555 6.05591 28.2452 5.86928L29.5417 4.59399V27.4179H19.6616L18.5793 29.5726H30.619C30.7605 29.5726 30.9006 29.5447 31.0313 29.4906C31.162 29.4365 31.2808 29.3571 31.3808 29.2571C31.4809 29.157 31.5602 29.0383 31.6144 28.9075C31.6685 28.7768 31.6964 28.6367 31.6964 28.4952V2.0231C31.6963 1.81078 31.6336 1.60319 31.516 1.4264C31.3984 1.24962 31.2312 1.11153 31.0353 1.02947Z" fill="#777777"/>
</g>
<defs>
<clipPath id="clip0_210_150">
<rect width="32" height="32" fill="white"/>
</clipPath>
</defs>
</svg>
