<svg width="100" height="100" viewBox="0 0 100 100" fill="none" xmlns="http://www.w3.org/2000/svg">
<g id="noun-bulk-buying-3978894 1">
<path id="Vector" d="M96.875 76.5625H87.5V59.375C87.5 58.9606 87.3354 58.5632 87.0424 58.2702C86.7493 57.9771 86.3519 57.8125 85.9375 57.8125H77.625L79.6875 45.5625C79.724 45.3374 79.7108 45.107 79.6488 44.8876C79.5868 44.6681 79.4775 44.4649 79.3286 44.2922C79.1797 44.1195 78.9948 43.9814 78.7869 43.8878C78.5789 43.7941 78.353 43.7471 78.125 43.75H49.0781L52.6719 40.1719C52.8183 40.0266 52.9346 39.8538 53.0139 39.6634C53.0932 39.473 53.1341 39.2688 53.1341 39.0625C53.1341 38.8563 53.0932 38.652 53.0139 38.4616C52.9346 38.2712 52.8183 38.0984 52.6719 37.9532L38.6094 23.8907C38.4641 23.7442 38.2913 23.628 38.1009 23.5486C37.9105 23.4693 37.7063 23.4285 37.5 23.4285C37.2937 23.4285 37.0895 23.4693 36.8991 23.5486C36.7087 23.628 36.5359 23.7442 36.3906 23.8907L22.3281 37.9532C22.1817 38.0984 22.0654 38.2712 21.9861 38.4616C21.9068 38.652 21.8659 38.8563 21.8659 39.0625C21.8659 39.2688 21.9068 39.473 21.9861 39.6634C22.0654 39.8538 22.1817 40.0266 22.3281 40.1719L25.9219 43.75H18.75C18.522 43.7471 18.2961 43.7941 18.0881 43.8878C17.8802 43.9814 17.6953 44.1195 17.5464 44.2922C17.3975 44.4649 17.2882 44.6681 17.2262 44.8876C17.1642 45.107 17.151 45.3374 17.1875 45.5625L23.4375 83.0625C23.4974 83.4323 23.6881 83.7682 23.9749 84.0091C24.2617 84.25 24.6255 84.3799 25 84.375H51.5625V85.9375H21.6406L14.0625 40.375C14.0026 40.0053 13.8119 39.6694 13.5251 39.4285C13.2383 39.1876 12.8745 39.0577 12.5 39.0625H1.5625V42.1875H11.1719L18.75 87.75C18.8099 88.1198 19.0006 88.4557 19.2874 88.6966C19.5742 88.9375 19.938 89.0674 20.3125 89.0625H25.875C25.3069 90.0063 25.0046 91.086 25 92.1875C25 93.8451 25.6585 95.4348 26.8306 96.6069C28.0027 97.7791 29.5924 98.4375 31.25 98.4375C32.9076 98.4375 34.4973 97.7791 35.6694 96.6069C36.8415 95.4348 37.5 93.8451 37.5 92.1875C37.4954 91.086 37.1931 90.0063 36.625 89.0625H51.5625V96.875C51.5625 97.2894 51.7271 97.6869 52.0201 97.9799C52.3132 98.2729 52.7106 98.4375 53.125 98.4375H96.875C97.2894 98.4375 97.6868 98.2729 97.9799 97.9799C98.2729 97.6869 98.4375 97.2894 98.4375 96.875V78.125C98.4375 77.7106 98.2729 77.3132 97.9799 77.0202C97.6868 76.7271 97.2894 76.5625 96.875 76.5625ZM34.375 92.1875C34.375 92.8056 34.1917 93.4098 33.8483 93.9237C33.505 94.4376 33.0169 94.8381 32.4459 95.0747C31.8749 95.3112 31.2465 95.3731 30.6403 95.2525C30.0342 95.1319 29.4773 94.8343 29.0403 94.3972C28.6033 93.9602 28.3056 93.4034 28.185 92.7972C28.0645 92.191 28.1264 91.5627 28.3629 90.9916C28.5994 90.4206 28.9999 89.9326 29.5138 89.5892C30.0277 89.2458 30.6319 89.0625 31.25 89.0625C32.0788 89.0625 32.8737 89.3918 33.4597 89.9778C34.0458 90.5639 34.375 91.3587 34.375 92.1875ZM84.375 79.6875H87.5V84.375H84.375V79.6875ZM84.375 76.5625H65.625V60.9375H70.3125V67.1875C70.3125 67.6019 70.4771 67.9994 70.7701 68.2924C71.0632 68.5854 71.4606 68.75 71.875 68.75H78.125C78.5394 68.75 78.9368 68.5854 79.2299 68.2924C79.5229 67.9994 79.6875 67.6019 79.6875 67.1875V60.9375H84.375V76.5625ZM62.5 79.6875H65.625V84.375H62.5V79.6875ZM76.5625 60.9375V65.625H73.4375V60.9375H76.5625ZM32.8125 31.8907L35.2969 34.375L32.8125 36.8594L30.3281 34.375L32.8125 31.8907ZM25.6406 39.0625L28.125 36.5782L31.7031 40.1719C31.8484 40.3184 32.0212 40.4346 32.2116 40.5139C32.402 40.5932 32.6062 40.6341 32.8125 40.6341C33.0188 40.6341 33.223 40.5932 33.4134 40.5139C33.6038 40.4346 33.7766 40.3184 33.9219 40.1719L38.6094 35.4844C38.7558 35.3391 38.8721 35.1663 38.9514 34.9759C39.0307 34.7855 39.0716 34.5813 39.0716 34.375C39.0716 34.1688 39.0307 33.9645 38.9514 33.7741C38.8721 33.5837 38.7558 33.4109 38.6094 33.2657L35.0156 29.6875L37.5 27.2032L49.3594 39.0625L44.6719 43.75H30.3281L25.6406 39.0625ZM76.2812 46.875L75.7656 50H21.0781L20.5625 46.875H76.2812ZM51.5625 78.125V81.25H26.3281L21.6406 53.125H75.2344L74.4531 57.8125H64.0625C63.6481 57.8125 63.2507 57.9771 62.9576 58.2702C62.6646 58.5632 62.5 58.9606 62.5 59.375V76.5625H53.125C52.7106 76.5625 52.3132 76.7271 52.0201 77.0202C51.7271 77.3132 51.5625 77.7106 51.5625 78.125ZM54.6875 79.6875H59.375V85.9375C59.375 86.3519 59.5396 86.7494 59.8326 87.0424C60.1257 87.3354 60.5231 87.5 60.9375 87.5H67.1875C67.6019 87.5 67.9993 87.3354 68.2924 87.0424C68.5854 86.7494 68.75 86.3519 68.75 85.9375V79.6875H73.4375V95.3125H54.6875V79.6875ZM95.3125 95.3125H76.5625V79.6875H81.25V85.9375C81.25 86.3519 81.4146 86.7494 81.7076 87.0424C82.0007 87.3354 82.3981 87.5 82.8125 87.5H89.0625C89.4769 87.5 89.8743 87.3354 90.1674 87.0424C90.4604 86.7494 90.625 86.3519 90.625 85.9375V79.6875H95.3125V95.3125Z" fill="#333333"/>
<path id="Vector_2" d="M67.6406 32.3594C67.7859 32.5059 67.9587 32.6221 68.1491 32.7014C68.3395 32.7807 68.5437 32.8216 68.75 32.8216C68.9563 32.8216 69.1605 32.7807 69.3509 32.7014C69.5413 32.6221 69.7141 32.5059 69.8594 32.3594L83.9219 18.2969C84.0683 18.1516 84.1846 17.9788 84.2639 17.7884C84.3432 17.598 84.3841 17.3938 84.3841 17.1875C84.3841 16.9813 84.3432 16.777 84.2639 16.5866C84.1846 16.3962 84.0683 16.2234 83.9219 16.0782L69.8594 2.01565C69.7141 1.8692 69.5413 1.75296 69.3509 1.67363C69.1605 1.59431 68.9563 1.55347 68.75 1.55347C68.5437 1.55347 68.3395 1.59431 68.1491 1.67363C67.9587 1.75296 67.7859 1.8692 67.6406 2.01565L53.5781 16.0782C53.4317 16.2234 53.3154 16.3962 53.2361 16.5866C53.1568 16.777 53.1159 16.9813 53.1159 17.1875C53.1159 17.3938 53.1568 17.598 53.2361 17.7884C53.3154 17.9788 53.4317 18.1516 53.5781 18.2969L67.6406 32.3594ZM75.9219 12.5L73.4375 14.9844L70.9531 12.5L73.4375 10.0157L75.9219 12.5ZM68.75 5.32815L71.2344 7.81253L67.6406 11.3907C67.4942 11.5359 67.3779 11.7087 67.2986 11.8991C67.2193 12.0895 67.1784 12.2938 67.1784 12.5C67.1784 12.7063 67.2193 12.9105 67.2986 13.1009C67.3779 13.2913 67.4942 13.4641 67.6406 13.6094L72.3281 18.2969C72.4734 18.4434 72.6462 18.5596 72.8366 18.6389C73.027 18.7182 73.2312 18.7591 73.4375 18.7591C73.6438 18.7591 73.848 18.7182 74.0384 18.6389C74.2288 18.5596 74.4016 18.4434 74.5469 18.2969L78.125 14.7032L80.6094 17.1875L68.75 29.0469L56.8906 17.1875L68.75 5.32815Z" fill="#333333"/>
</g>
</svg>
