<svg width="32" height="32" viewBox="0 0 32 32" fill="none" xmlns="http://www.w3.org/2000/svg">
<g id="noun-reports-1431855 1">
<g id="Group">
<path id="Compound Path" d="M28.768 6.65605C28.7705 6.52527 28.7462 6.39537 28.6967 6.27431C28.6472 6.15325 28.5734 6.04358 28.48 5.95205L23.648 1.40805C23.4656 1.23887 23.2247 1.14709 22.976 1.15205H15.392C14.5433 1.15205 13.7294 1.48919 13.1293 2.0893C12.5291 2.68942 12.192 3.50335 12.192 4.35205V5.63205H10.912C10.0633 5.63205 9.24937 5.96919 8.64925 6.5693C8.04914 7.16942 7.71199 7.98335 7.71199 8.83205V10.112H6.43199C5.5833 10.112 4.76937 10.4492 4.16925 11.0493C3.56914 11.6494 3.23199 12.4634 3.23199 13.312V27.648C3.23199 28.4967 3.56914 29.3107 4.16925 29.9108C4.76937 30.5109 5.5833 30.848 6.43199 30.848H16.608C17.4567 30.848 18.2706 30.5109 18.8707 29.9108C19.4709 29.3107 19.808 28.4967 19.808 27.648V26.368H21.088C21.9367 26.368 22.7506 26.0309 23.3507 25.4308C23.9509 24.8307 24.288 24.0167 24.288 23.168V21.888H25.568C26.4167 21.888 27.2306 21.5509 27.8307 20.9508C28.4309 20.3507 28.768 19.5367 28.768 18.688V6.65605ZM23.968 4.35205L25.408 5.69605H23.968V4.35205ZM16.608 28.96H6.43199C6.09252 28.96 5.76694 28.8252 5.5269 28.5851C5.28685 28.3451 5.15199 28.0195 5.15199 27.68V13.312C5.15199 12.9726 5.28685 12.647 5.5269 12.4069C5.76694 12.1669 6.09252 12.032 6.43199 12.032H13.088V15.616C13.088 15.8707 13.1891 16.1148 13.3692 16.2949C13.5492 16.4749 13.7934 16.576 14.048 16.576H17.888V27.648C17.888 27.9875 17.7531 28.3131 17.5131 28.5531C17.273 28.7932 16.9475 28.928 16.608 28.928V28.96ZM15.008 13.312L16.448 14.656H15.008V13.312ZM21.088 24.48H19.808V15.616C19.8105 15.4853 19.7862 15.3554 19.7367 15.2343C19.6872 15.1132 19.6134 15.0036 19.52 14.912L14.72 10.368C14.5376 10.1989 14.2967 10.1071 14.048 10.112H9.63199V8.83205C9.63199 8.49257 9.76685 8.167 10.0069 7.92695C10.2469 7.6869 10.5725 7.55205 10.912 7.55205H17.568V11.136C17.568 11.3907 17.6691 11.6348 17.8492 11.8149C18.0292 11.9949 18.2734 12.096 18.528 12.096H22.368V23.168C22.368 23.5075 22.2331 23.8331 21.9931 24.0731C21.753 24.3132 21.4275 24.448 21.088 24.448V24.48ZM19.488 8.83205L20.928 10.176H19.488V8.83205ZM25.568 20H24.288V11.136C24.2905 11.0053 24.2662 10.8754 24.2167 10.7543C24.1672 10.6332 24.0934 10.5236 24 10.432L19.2 5.88805C19.0176 5.71887 18.7767 5.62709 18.528 5.63205H14.112V4.35205C14.112 4.01257 14.2469 3.687 14.4869 3.44695C14.7269 3.2069 15.0525 3.07205 15.392 3.07205H22.048V6.65605C22.048 6.91065 22.1491 7.15483 22.3292 7.33487C22.5092 7.5149 22.7534 7.61605 23.008 7.61605H26.848V18.688C26.848 19.0275 26.7131 19.3531 26.4731 19.5931C26.233 19.8332 25.9075 19.968 25.568 19.968V20Z" fill="#777777"/>
</g>
</g>
</svg>
