<svg width="52" height="52" viewBox="0 0 52 52" fill="none" xmlns="http://www.w3.org/2000/svg">
<g id="noun-add-5479406 1">
<rect width="52" height="52" rx="26" fill="white"/>
<path id="Vector" d="M26 5C14.4181 5 5 14.4181 5 26C5 37.5819 14.4181 47 26 47C37.5819 47 47 37.5819 47 26C47 14.4181 37.5819 5 26 5ZM36.427 28.6549H28.6549V36.427C28.6549 37.8938 27.4668 39.0819 26 39.0819C24.5332 39.0819 23.3451 37.8938 23.3451 36.427V28.6549H15.573C14.1062 28.6549 12.9181 27.4668 12.9181 26C12.9181 24.5332 14.1062 23.3451 15.573 23.3451H23.3451V15.573C23.3451 14.1062 24.5332 12.9181 26 12.9181C27.4668 12.9181 28.6549 14.1062 28.6549 15.573V23.3451H36.427C37.8938 23.3451 39.0819 24.5332 39.0819 26C39.0819 27.4668 37.8938 28.6549 36.427 28.6549Z" fill="#1B9BEF"/>
</g>
</svg>
