<svg width="24" height="24" viewBox="0 0 24 24" fill="none" xmlns="http://www.w3.org/2000/svg">
<g id="noun-work-5949579">
<path id="Vector" d="M2.9 11.1111C2.9 11.618 3.07119 12.0818 3.35 12.4622V18.2222C3.35 19.2591 4.20325 20.1 5.25 20.1H18.75C19.7968 20.1 20.65 19.2591 20.65 18.2222V12.4622C20.9288 12.0818 21.1 11.618 21.1 11.1111V8C21.1 6.96316 20.2468 6.12222 19.2 6.12222H15.7V5.33333C15.7 4.54183 15.0484 3.9 14.25 3.9H9.75C8.95165 3.9 8.3 4.54183 8.3 5.33333V6.12222H4.8C3.75325 6.12222 2.9 6.96316 2.9 8V11.1111ZM18.75 19.0111H5.25C4.8077 19.0111 4.45 18.656 4.45 18.2222V13.2921C4.69963 13.3824 4.9684 13.4333 5.25 13.4333H10.325V14.2222C10.325 14.7688 10.7746 15.2111 11.325 15.2111H12.675C13.2254 15.2111 13.675 14.7688 13.675 14.2222V13.4333H18.75C19.0315 13.4333 19.3003 13.3828 19.55 13.2923V18.2222C19.55 18.656 19.1923 19.0111 18.75 19.0111ZM11.425 14.1222V11.6556H12.575V14.1222H11.425ZM9.4 5.33333C9.4 5.14478 9.55572 4.98889 9.75 4.98889H14.25C14.4443 4.98889 14.6 5.14478 14.6 5.33333V6.12222H9.4V5.33333ZM4 8C4 7.56617 4.3577 7.21111 4.8 7.21111H19.2C19.6423 7.21111 20 7.56617 20 8V11.1111C20 11.7898 19.4402 12.3444 18.75 12.3444H13.675V11.5556C13.675 11.0089 13.2254 10.5667 12.675 10.5667H11.325C10.7746 10.5667 10.325 11.0089 10.325 11.5556V12.3444H5.25C4.55975 12.3444 4 11.7898 4 11.1111V8Z" fill="#333333" stroke="#333333" stroke-width="0.2"/>
</g>
</svg>
