<svg width="24" height="24" viewBox="0 0 24 24" fill="none" xmlns="http://www.w3.org/2000/svg">
<g id="noun-select-all-4671270 1">
<path id="Vector" d="M13.06 9L10.61 11.4L10 12C9.83606 12.1577 9.61745 12.2457 9.39 12.2457C9.16255 12.2457 8.94394 12.1577 8.78 12L8.16 11.38L6.94 10.18L8.16 9L9.39 10.22L11.84 7.77L13.06 9ZM21 10V20C21 20.2652 20.8946 20.5196 20.7071 20.7071C20.5196 20.8946 20.2652 21 20 21H10C9.73478 21 9.48043 20.8946 9.29289 20.7071C9.10536 20.5196 9 20.2652 9 20V17H4C3.73478 17 3.48043 16.8946 3.29289 16.7071C3.10536 16.5196 3 16.2652 3 16V4C3 3.73478 3.10536 3.48043 3.29289 3.29289C3.48043 3.10536 3.73478 3 4 3H16C16.2652 3 16.5196 3.10536 16.7071 3.29289C16.8946 3.48043 17 3.73478 17 4V9H20C20.2652 9 20.5196 9.10536 20.7071 9.29289C20.8946 9.48043 21 9.73478 21 10ZM9 15H15V5H5V15H9ZM19 11H17V16C17 16.2652 16.8946 16.5196 16.7071 16.7071C16.5196 16.8946 16.2652 17 16 17H11V19H19V11Z" fill="#777777"/>
</g>
</svg>
