<svg width="32" height="32" viewBox="0 0 32 32" fill="none" xmlns="http://www.w3.org/2000/svg">
<g id="noun-payment-6223435 1">
<g id="Layer 2">
<path id="Vector" d="M14.5 29.85H14.4999C13.8769 29.8493 13.2796 29.6015 12.839 29.161C12.3985 28.7205 12.1507 28.1231 12.15 27.5001V27.5V27.0698V27.0695C12.1506 26.8814 12.1045 26.6961 12.0158 26.5303C11.927 26.3645 11.7984 26.2233 11.6416 26.1195L11.641 26.1191L10.4165 25.2958C10.4164 25.2958 10.4164 25.2957 10.4163 25.2957C10.0258 25.0371 9.70566 24.6856 9.48463 24.2727C9.26359 23.8598 9.14861 23.3984 9.15 22.9301M14.5 29.85L9.25 22.9302M14.5 29.85H22.5H22.5001C23.1231 29.8492 23.7204 29.6014 24.1609 29.1609C24.6014 28.7204 24.8492 28.1231 24.85 27.5001V27.5V26.8301V26.83C24.8499 26.6779 24.88 26.5272 24.9384 26.3867C24.9969 26.2462 25.0826 26.1186 25.1906 26.0114L25.1908 26.0112L26.0109 25.1911C26.011 25.191 26.011 25.191 26.0111 25.1909L14.5 29.85ZM9.15 22.9301C9.15 22.93 9.15 22.9299 9.15 22.9299L9.25 22.9302M9.15 22.9301V22.9302H9.25M9.15 22.9301V20.6648M9.25 22.9302V20.6157M9.15 20.6648C9.16298 20.6749 9.17599 20.685 9.18902 20.695L9.25 20.6157M9.15 20.6648V20.6157H9.25M9.15 20.6648C7.7742 19.5959 6.69027 18.1968 5.999 16.597C5.30122 14.9821 5.02657 13.216 5.20101 11.4654C5.37544 9.7149 5.9932 8.03771 6.99594 6.59225C7.99869 5.1468 9.35332 3.98079 10.9319 3.20434C12.5105 2.42789 14.261 2.06663 16.018 2.15467C17.775 2.24271 19.4805 2.77714 20.9736 3.7075C22.4667 4.63786 23.698 5.93344 24.5512 7.47189C25.4044 9.01034 25.8514 10.7409 25.85 12.5001L25.85 12.5011C25.842 13.2254 25.757 13.9467 25.5965 14.6529C25.9716 14.9045 26.2813 15.2424 26.4994 15.6387C26.7289 16.0557 26.8495 16.5239 26.85 16.9999V17V23.1697V23.1699H26.75C26.7508 23.5324 26.6797 23.8914 26.5407 24.2262C26.4018 24.561 26.1977 24.8648 25.9404 25.1201L9.25 20.6157M24.75 26.8301V27.5V26.8301ZM24.75 26.8301C24.7499 26.6647 24.7826 26.501 24.8461 26.3483C24.9096 26.1956 25.0028 26.057 25.1201 25.9404L24.75 26.8301ZM11.3584 23.8805L11.359 23.8809L12.5835 24.7042C12.5836 24.7043 12.5836 24.7043 12.5837 24.7043C12.9742 24.9629 13.2943 25.3144 13.5154 25.7273C13.7364 26.1402 13.8514 26.6015 13.85 27.0698C13.85 27.0699 13.85 27.07 13.85 27.0701M11.3584 23.8805L13.75 27.0698L13.85 27.0701M11.3584 23.8805C11.2016 23.7767 11.073 23.6355 10.9842 23.4697C10.8955 23.3039 10.8494 23.1186 10.85 22.9305V22.9302V21.7516C12.7907 22.7211 14.9872 23.0613 17.1327 22.7223M11.3584 23.8805L23.9889 24.8092C23.989 24.8091 23.989 24.809 23.9891 24.8089L24.8092 23.9889L24.8094 23.9886C24.9174 23.8814 25.0031 23.7539 25.0616 23.6134C25.12 23.4729 25.1501 23.3222 25.15 23.17V23.1699V17.0005C25.1477 16.7607 25.0708 16.5275 24.93 16.3334C24.789 16.1391 24.5911 15.9936 24.3637 15.9171L24.3583 15.9153L24.3584 15.9151C24.1614 15.8362 23.945 15.8193 23.7381 15.8668C23.5313 15.9142 23.3438 16.0237 23.2009 16.1806L23.1962 16.1858L23.1961 16.1856C23.0861 16.2906 22.9986 16.417 22.9391 16.5569C22.8796 16.6969 22.8493 16.8475 22.85 16.9996L22.85 17V21C22.85 21 22.85 21 22.85 21C22.85 21.1786 22.7938 21.3527 22.6893 21.4975C22.5848 21.6424 22.4373 21.7506 22.2678 21.8069L22.2678 21.8069L20.6385 22.3467C20.6385 22.3467 20.6384 22.3467 20.6384 22.3467C20.4095 22.4242 20.2104 22.5712 20.0691 22.7673C19.9278 22.9633 19.8512 23.1985 19.85 23.44V24C19.85 24.2255 19.7604 24.4417 19.601 24.6011C19.4416 24.7605 19.2254 24.85 19 24.85C18.7746 24.85 18.5584 24.7605 18.399 24.6011C18.2396 24.4417 18.15 24.2255 18.15 24V23.44V23.4397C18.1516 22.8422 18.3401 22.2603 18.6891 21.7753C19.038 21.2904 19.5299 20.9267 20.0959 20.7354L20.0965 20.7352L21.15 20.3863V17V16.9996C21.1514 16.6218 21.2278 16.248 21.3747 15.8999C21.5216 15.5518 21.7361 15.2363 22.0058 14.9716C22.2755 14.707 22.595 14.4985 22.9458 14.3582C23.2712 14.2281 23.6175 14.1591 23.9674 14.1544C24.0822 13.6101 24.1434 13.0558 24.15 12.4995C24.149 10.9692 23.7423 9.46645 22.9713 8.14452C22.2002 6.82243 21.0923 5.72846 19.7605 4.97415C18.4288 4.21984 16.9208 3.83216 15.3904 3.85065C13.86 3.86913 12.3618 4.29312 11.0487 5.07938C9.73557 5.86564 8.65442 6.98605 7.91547 8.32638C7.17653 9.66671 6.80622 11.179 6.84231 12.7091C6.87839 14.2392 7.31958 15.7324 8.12089 17.0364C8.92214 18.3403 10.0548 19.4084 11.4034 20.1319C13.0808 21.0118 14.9959 21.3312 16.8681 21.0433L16.8833 21.1421L16.8676 21.0433C16.9779 21.0258 17.0906 21.0302 17.1992 21.0563C17.3077 21.0824 17.4101 21.1296 17.5005 21.1952C17.5908 21.2608 17.6673 21.3437 17.7256 21.4389C17.7839 21.5341 17.8229 21.6399 17.8403 21.7502C17.8577 21.8605 17.8533 21.9732 17.8271 22.0817C17.801 22.1903 17.7537 22.2926 17.688 22.3829C17.6223 22.4732 17.5394 22.5496 17.4441 22.6079C17.3488 22.6661 17.243 22.705 17.1327 22.7223M13.85 27.0701L13.85 27.4999M13.85 27.0701L13.85 27.4999M13.85 27.4999C13.8502 27.6723 13.9187 27.8375 14.0406 27.9594C14.1625 28.0813 14.3277 28.1498 14.5001 28.15H22.4998C22.6722 28.1498 22.8374 28.0812 22.9593 27.9593C23.0812 27.8374 23.1497 27.6722 23.15 27.4999V26.8303V26.8301H23.25C23.2492 26.4676 23.3203 26.1086 23.4593 25.7738C23.5982 25.4391 23.8023 25.1352 24.0596 24.8799L13.85 27.4999ZM17.1327 22.7223L17.1172 22.6236L17.1328 22.7223C17.1328 22.7223 17.1327 22.7223 17.1327 22.7223Z" fill="#777777" stroke="#777777" stroke-width="0.2"/>
<path id="Vector_2" d="M18.9102 14.7168C18.8694 14.0019 18.582 13.3231 18.0969 12.7963C17.6119 12.2695 16.9592 11.9272 16.25 11.8276V8.9353C16.5606 9.00939 16.8399 9.17954 17.0482 9.42153C17.2565 9.66353 17.3831 9.96506 17.4102 10.2832C17.4102 10.4821 17.4892 10.6729 17.6298 10.8135C17.7705 10.9542 17.9613 11.0332 18.1602 11.0332C18.3591 11.0332 18.5498 10.9542 18.6905 10.8135C18.8311 10.6729 18.9102 10.4821 18.9102 10.2832C18.8694 9.5683 18.582 8.88965 18.0969 8.36291C17.6119 7.83617 16.9591 7.49394 16.25 7.39453V6.7998C16.25 6.60089 16.171 6.41013 16.0303 6.26947C15.8897 6.12882 15.6989 6.0498 15.5 6.0498C15.3011 6.0498 15.1103 6.12882 14.9697 6.26947C14.829 6.41013 14.75 6.60089 14.75 6.7998V7.39453C14.0408 7.49386 13.3881 7.83607 12.903 8.36283C12.4179 8.88958 12.1305 9.56828 12.0898 10.2832C12.1305 10.9982 12.4179 11.6769 12.903 12.2037C13.3881 12.7306 14.0408 13.0729 14.75 13.1724V16.0647C14.4394 15.9906 14.1601 15.8205 13.9518 15.5785C13.7435 15.3365 13.6169 15.035 13.5898 14.7168C13.5898 14.5179 13.5108 14.3271 13.3702 14.1865C13.2295 14.0458 13.0388 13.9668 12.8398 13.9668C12.6409 13.9668 12.4502 14.0458 12.3095 14.1865C12.1689 14.3271 12.0898 14.5179 12.0898 14.7168C12.1305 15.4317 12.4179 16.1104 12.903 16.6372C13.3881 17.1639 14.0408 17.5061 14.75 17.6055V18.2002C14.75 18.3991 14.829 18.5899 14.9697 18.7305C15.1103 18.8712 15.3011 18.9502 15.5 18.9502C15.6989 18.9502 15.8897 18.8712 16.0303 18.7305C16.171 18.5899 16.25 18.3991 16.25 18.2002V17.6055C16.9591 17.5061 17.6119 17.1638 18.0969 16.6371C18.582 16.1104 18.8694 15.4317 18.9102 14.7168ZM13.5898 10.2832C13.6169 9.96506 13.7435 9.66353 13.9518 9.42153C14.1601 9.17954 14.4394 9.00939 14.75 8.9353V11.6316C14.4394 11.5574 14.1601 11.3871 13.9518 11.1451C13.7435 10.903 13.6169 10.6014 13.5898 10.2832ZM16.25 16.0647V13.3684C16.5606 13.4426 16.8399 13.6129 17.0482 13.8549C17.2565 14.097 17.3831 14.3986 17.4102 14.7168C17.3831 15.035 17.2565 15.3365 17.0482 15.5785C16.8399 15.8205 16.5606 15.9906 16.25 16.0647Z" fill="#777777"/>
</g>
</g>
</svg>
