<svg width="30" height="30" viewBox="0 0 30 30" fill="none" xmlns="http://www.w3.org/2000/svg">
<g id="noun-notification-1040085 (1) 1">
<g id="Group">
<path id="Vector" d="M6.33003 24.6312H11.1C11.58 26.3712 13.17 27.6012 15 27.6012C16.83 27.6012 18.42 26.3412 18.9 24.6312H23.67C25.08 24.6312 26.22 23.4912 26.22 22.0812C26.22 21.2412 25.8 20.4312 25.08 19.9512C24.39 19.4712 23.25 17.9112 23.25 12.6612C23.25 7.62117 20.28 5.49117 17.97 4.59117C18 4.44117 18 4.32117 18 4.20117C18 2.55117 16.65 1.20117 15 1.20117C13.35 1.20117 12 2.55117 12 4.20117C12 4.32117 12 4.47117 12.03 4.59117C9.72003 5.49117 6.75003 7.62117 6.75003 12.6612C6.75003 17.9112 5.61003 19.4712 4.92003 19.9512C4.20003 20.4312 3.78003 21.2412 3.78003 22.0812C3.78003 23.4912 4.92003 24.6312 6.33003 24.6312ZM15 25.8012C14.16 25.8012 13.41 25.3212 13.02 24.6312H16.95C16.59 25.3212 15.84 25.8012 15 25.8012ZM15 3.00117C15.63 3.00117 16.11 3.48117 16.2 4.08117C15.27 3.93117 14.43 3.99117 13.83 4.08117C13.89 3.48117 14.37 3.00117 15 3.00117ZM8.55003 12.6612C8.55003 8.31117 11.25 6.63117 13.5 6.00117L13.56 5.97117C13.56 5.97117 14.19 5.76117 15.06 5.76117C15.51 5.76117 16.02 5.82117 16.53 5.97117H16.56C18.81 6.60117 21.51 8.28117 21.51 12.6312C21.51 15.8112 21.93 18.2112 22.74 19.7712H7.29003C8.13003 18.2412 8.55003 15.8412 8.55003 12.6612ZM5.73003 21.6012H24.24C24.36 21.7512 24.42 21.9012 24.42 22.0812C24.42 22.5012 24.09 22.8312 23.67 22.8312H6.33003C5.91003 22.8312 5.58003 22.5012 5.58003 22.0812C5.58003 21.9012 5.64003 21.7512 5.73003 21.6012Z" fill="#666666"/>
</g>
</g>
</svg>
