<svg width="100" height="100" viewBox="0 0 100 100" fill="none" xmlns="http://www.w3.org/2000/svg">
<g id="noun-factory-798041 1">
<g id="Group">
<path id="Vector" d="M85.2 50.2C84.8 49.9 84.3 49.8 83.8 50L66.8 55.8V51.4C66.8 50.9 66.6 50.5 66.2 50.2C65.8 49.9 65.3 49.8 64.8 50L47.8 55.8V51.4C47.8 50.9 47.6 50.5 47.2 50.2C46.8 49.9 46.3 49.8 45.8 50L28.6 55.9L27.8 31.9C27.8 31.1 27.1 30.5 26.3 30.5H17.5C16.7 30.5 16 31.1 16 31.9L14 91.2C14 91.6 14.1 92 14.4 92.3C14.7 92.6 15.1 92.8 15.5 92.8H84.2C85 92.8 85.7 92.1 85.7 91.3V51.5C85.8 51 85.6 50.5 85.2 50.2ZM25 33.5L25.1 35.5H19.1L19.2 33.5H25ZM19 38.4H25.2L26.9 89.8H17.2L19 38.4ZM82.8 89.8H29.9L28.9 59L44.9 53.5V57.9V58C44.9 58.1 44.9 58.1 44.9 58.2C44.9 58.3 44.9 58.3 44.9 58.3V58.4C44.9 58.5 45 58.7 45.1 58.8C45.1 58.8 45.1 58.8 45.2 58.9C45.3 59 45.4 59.1 45.5 59.2C45.6 59.3 45.7 59.3 45.9 59.4H46C46.1 59.4 46.3 59.5 46.4 59.5C46.6 59.5 46.7 59.5 46.8 59.4L63.8 53.6V58V58.1C63.8 58.2 63.8 58.2 63.8 58.3C63.8 58.4 63.8 58.4 63.8 58.4V58.5C63.8 58.5 63.8 58.6 63.9 58.6C63.9 58.6 63.9 58.7 64 58.7L64.1 58.8L64.2 58.9L64.3 59L64.4 59.1C64.4 59.1 64.5 59.1 64.5 59.2L64.6 59.3H64.7C64.8 59.3 64.8 59.3 64.9 59.4H65C65.1 59.4 65.1 59.4 65.2 59.4H65.3C65.4 59.4 65.4 59.4 65.5 59.4C65.6 59.4 65.6 59.4 65.7 59.4H65.8L82.8 53.6V89.8Z" fill="#333333"/>
<path id="Vector_2" d="M18 29.3999C18.2 29.3999 18.5 29.2999 18.7 29.1999C19.4 28.7999 19.7 27.8999 19.3 27.1999C18.3 25.3999 16.1 19.9999 18.2 16.5999C21.4 11.2999 19.5 8.19991 19.3 7.89991C18.9 7.19991 18 6.99991 17.3 7.49991C16.6 7.89991 16.4 8.79991 16.8 9.49991C16.8 9.59991 17.9 11.3999 15.7 15.0999C12.3 20.6999 16.6 28.3999 16.8 28.6999C17 29.1999 17.5 29.3999 18 29.3999Z" fill="#333333"/>
<path id="Vector_3" d="M25.4 28.9998C25.6 28.9998 25.8 28.9998 26 28.8998C26.8 28.5998 27.1 27.6998 26.7 26.8998C26.7 26.7998 24.5 21.7998 27 19.7998C28.2 18.7998 29.2 18.1998 30.2 17.4998C32.6 15.8998 34.5 14.6998 35.3 10.8998C35.5 10.0998 34.9 9.2998 34.1 9.0998C33.3 8.8998 32.5 9.4998 32.3 10.2998C31.8 12.8998 30.8 13.4998 28.5 14.9998C27.5 15.5998 26.4 16.3998 25.1 17.3998C20.8 20.8998 23.9 27.7998 24 28.0998C24.3 28.6998 24.8 28.9998 25.4 28.9998Z" fill="#333333"/>
<path id="Vector_4" d="M70.4 71.4999H79.5C80.3 71.4999 81 70.7999 81 69.9999V64.3999C81 63.5999 80.3 62.8999 79.5 62.8999H70.4C69.6 62.8999 68.9 63.5999 68.9 64.3999V69.9999C68.9 70.7999 69.5 71.4999 70.4 71.4999ZM71.9 65.8999H78V68.4999H71.9V65.8999Z" fill="#333333"/>
<path id="Vector_5" d="M60.5 62.8999H51.4C50.6 62.8999 49.9 63.5999 49.9 64.3999V69.9999C49.9 70.7999 50.6 71.4999 51.4 71.4999H60.5C61.3 71.4999 62 70.7999 62 69.9999V64.3999C62 63.4999 61.3 62.8999 60.5 62.8999ZM59 68.4999H52.9V65.8999H59V68.4999Z" fill="#333333"/>
<path id="Vector_6" d="M41.4 62.8999H32.3C31.5 62.8999 30.8 63.5999 30.8 64.3999V69.9999C30.8 70.7999 31.5 71.4999 32.3 71.4999H41.4C42.2 71.4999 42.9 70.7999 42.9 69.9999V64.3999C42.9 63.4999 42.3 62.8999 41.4 62.8999ZM39.9 68.4999H33.8V65.8999H39.9V68.4999Z" fill="#333333"/>
<path id="Vector_7" d="M70.4 81.8998H79.5C80.3 81.8998 81 81.1998 81 80.3998V74.7998C81 73.9998 80.3 73.2998 79.5 73.2998H70.4C69.6 73.2998 68.9 73.9998 68.9 74.7998V80.3998C68.9 81.1998 69.5 81.8998 70.4 81.8998ZM71.9 76.2998H78V78.8998H71.9V76.2998Z" fill="#333333"/>
<path id="Vector_8" d="M60.5 73.2998H51.4C50.6 73.2998 49.9 73.9998 49.9 74.7998V80.3998C49.9 81.1998 50.6 81.8998 51.4 81.8998H60.5C61.3 81.8998 62 81.1998 62 80.3998V74.7998C62 73.9998 61.3 73.2998 60.5 73.2998ZM59 78.8998H52.9V76.2998H59V78.8998Z" fill="#333333"/>
<path id="Vector_9" d="M41.4 73.2998H32.3C31.5 73.2998 30.8 73.9998 30.8 74.7998V80.3998C30.8 81.1998 31.5 81.8998 32.3 81.8998H41.4C42.2 81.8998 42.9 81.1998 42.9 80.3998V74.7998C42.9 73.9998 42.3 73.2998 41.4 73.2998ZM39.9 78.8998H33.8V76.2998H39.9V78.8998Z" fill="#333333"/>
<path id="Vector_10" d="M46.4 62.8999C45.6 62.8999 44.9 63.5999 44.9 64.3999V69.9999C44.9 70.7999 45.6 71.4999 46.4 71.4999C47.2 71.4999 47.9 70.7999 47.9 69.9999V64.3999C47.9 63.4999 47.2 62.8999 46.4 62.8999Z" fill="#333333"/>
<path id="Vector_11" d="M63.9 64.3999V69.9999C63.9 70.7999 64.6 71.4999 65.4 71.4999C66.2 71.4999 66.9 70.7999 66.9 69.9999V64.3999C66.9 63.5999 66.2 62.8999 65.4 62.8999C64.6 62.8999 63.9 63.4999 63.9 64.3999Z" fill="#333333"/>
<path id="Vector_12" d="M46.4 73.2998C45.6 73.2998 44.9 73.9998 44.9 74.7998V80.3998C44.9 81.1998 45.6 81.8998 46.4 81.8998C47.2 81.8998 47.9 81.1998 47.9 80.3998V74.7998C47.9 73.9998 47.2 73.2998 46.4 73.2998Z" fill="#333333"/>
<path id="Vector_13" d="M65.4 73.2998C64.6 73.2998 63.9 73.9998 63.9 74.7998V80.3998C63.9 81.1998 64.6 81.8998 65.4 81.8998C66.2 81.8998 66.9 81.1998 66.9 80.3998V74.7998C66.9 73.9998 66.2 73.2998 65.4 73.2998Z" fill="#333333"/>
</g>
</g>
</svg>
