<svg width="32" height="32" viewBox="0 0 32 32" fill="none" xmlns="http://www.w3.org/2000/svg">
<g id="noun-log-out-5762374 1">
<path id="Vector" d="M7.30879 23.8652C8.23039 24.854 9.46559 25.318 11.7088 26.1596C12.0271 26.2788 12.3796 26.2668 12.689 26.126C12.9984 25.9853 13.2392 25.7274 13.3584 25.4092C13.4776 25.0909 13.4656 24.7383 13.3248 24.429C13.1841 24.1196 12.9263 23.8788 12.608 23.7596C10.6688 23.0332 9.69279 22.6684 9.18079 22.118C8.96991 21.8921 8.79311 21.6366 8.65599 21.3596C8.31999 20.6876 8.31999 19.6444 8.31999 17.5708V14.4284C8.31999 12.3548 8.31999 11.3116 8.65599 10.6396C8.79311 10.3626 8.96991 10.1071 9.18079 9.88118C9.69279 9.33078 10.6688 8.96598 12.608 8.23958C12.9233 8.11851 13.178 7.8777 13.3165 7.56965C13.4551 7.2616 13.4662 6.91128 13.3476 6.59504C13.229 6.27879 12.9901 6.02226 12.6831 5.88135C12.3762 5.74044 12.0259 5.72658 11.7088 5.84278C9.46879 6.68118 8.23039 7.14518 7.30879 8.13398C6.92489 8.54103 6.60157 9.00121 6.34879 9.50038C5.75999 10.71 5.75999 12.0316 5.75999 14.4284V17.5708C5.75999 19.9676 5.75999 21.2892 6.36159 22.4988C6.61043 22.9972 6.92941 23.4573 7.30879 23.8652Z" fill="#777777"/>
<path id="Vector_2" d="M15.4144 14.7205H13.12C12.7805 14.7205 12.4549 14.8553 12.2149 15.0954C11.9749 15.3354 11.84 15.661 11.84 16.0005C11.84 16.3399 11.9749 16.6655 12.2149 16.9056C12.4549 17.1456 12.7805 17.2805 13.12 17.2805H22.8288L19.9488 20.1605C19.7245 20.3745 19.582 20.6601 19.5458 20.9679C19.5096 21.2758 19.5819 21.5866 19.7504 21.8469C19.8571 22.0011 19.9965 22.13 20.1586 22.2245C20.3207 22.3189 20.5015 22.3766 20.6884 22.3934C20.8752 22.4102 21.0635 22.3857 21.2398 22.3216C21.4162 22.2576 21.5763 22.1556 21.7088 22.0229L25.136 18.5957C25.5157 18.2242 25.8114 17.7758 26.0032 17.2805C26.2522 16.6299 26.3077 15.9212 26.1629 15.2398C26.0181 14.5585 25.6792 13.9335 25.1872 13.4405L21.7056 9.97486C21.5708 9.83962 21.4074 9.73627 21.2274 9.67238C21.0474 9.6085 20.8554 9.58569 20.6655 9.60563C20.4756 9.62558 20.2925 9.68777 20.1297 9.78765C19.967 9.88753 19.8286 10.0226 19.7248 10.1829C19.5665 10.4353 19.4995 10.7343 19.535 11.0302C19.5705 11.326 19.7064 11.6007 19.92 11.8085L22.8288 14.7205H15.4144Z" fill="#777777"/>
</g>
</svg>
