<svg width="30" height="30" viewBox="0 0 30 30" fill="none" xmlns="http://www.w3.org/2000/svg">
<g id="noun-add-comment-5035165 1">
<g id="Group 33">
<path id="Vector" d="M9.3002 21.9004H11.0372L12.6002 23.5414C12.9355 23.901 13.345 24.1835 13.8002 24.3694C14.3991 24.6076 15.0545 24.6652 15.6858 24.5351C16.317 24.405 16.8963 24.0929 17.3522 23.6374L19.0982 21.9004H20.7002C21.655 21.9004 22.5707 21.5211 23.2458 20.846C23.9209 20.1708 24.3002 19.2552 24.3002 18.3004V9.00039C24.3002 8.04561 23.9209 7.12994 23.2458 6.45481C22.5707 5.77968 21.655 5.40039 20.7002 5.40039H9.3002C8.34542 5.40039 7.42974 5.77968 6.75461 6.45481C6.07948 7.12994 5.7002 8.04561 5.7002 9.00039V18.3004C5.7002 19.2552 6.07948 20.1708 6.75461 20.846C7.42974 21.5211 8.34542 21.9004 9.3002 21.9004ZM8.1002 12.7894V9.00039C8.1002 8.68213 8.22662 8.37691 8.45167 8.15186C8.67671 7.92682 8.98194 7.80039 9.3002 7.80039H20.7002C21.0185 7.80039 21.3237 7.92682 21.5487 8.15186C21.7738 8.37691 21.9002 8.68213 21.9002 9.00039V18.3004C21.9002 18.6186 21.7738 18.9239 21.5487 19.1489C21.3237 19.374 21.0185 19.5004 20.7002 19.5004H19.0982C18.7829 19.5001 18.4707 19.562 18.1794 19.6825C17.888 19.8029 17.6232 19.9796 17.4002 20.2024L15.6422 21.9604C15.5618 22.0423 15.4658 22.1074 15.36 22.1518C15.2541 22.1962 15.1405 22.2191 15.0257 22.2191C14.9109 22.2191 14.7973 22.1962 14.6914 22.1518C14.5856 22.1074 14.4896 22.0423 14.4092 21.9604L12.7712 20.2504C12.5479 20.0146 12.2792 19.8265 11.9811 19.6976C11.683 19.5687 11.3619 19.5016 11.0372 19.5004H9.3002C8.98194 19.5004 8.67671 19.374 8.45167 19.1489C8.22662 18.9239 8.1002 18.6186 8.1002 18.3004V12.7894Z" fill="#1B9BEF"/>
<path id="Vector_2" d="M12.3006 15.0004H13.8006V16.5004C13.8006 16.8187 13.927 17.1239 14.1521 17.3489C14.3771 17.574 14.6823 17.7004 15.0006 17.7004C15.3188 17.7004 15.6241 17.574 15.8491 17.3489C16.0742 17.1239 16.2006 16.8187 16.2006 16.5004V15.0004H17.7006C18.0188 15.0004 18.3241 14.874 18.5491 14.6489C18.7742 14.4239 18.9006 14.1186 18.9006 13.8004C18.9006 13.4821 18.7742 13.1769 18.5491 12.9519C18.3241 12.7268 18.0188 12.6004 17.7006 12.6004H16.2006V11.1004C16.2006 10.7821 16.0742 10.4769 15.8491 10.2519C15.6241 10.0268 15.3188 9.90039 15.0006 9.90039C14.6823 9.90039 14.3771 10.0268 14.1521 10.2519C13.927 10.4769 13.8006 10.7821 13.8006 11.1004V12.6004H12.3006C11.9823 12.6004 11.6771 12.7268 11.4521 12.9519C11.227 13.1769 11.1006 13.4821 11.1006 13.8004C11.1006 14.1186 11.227 14.4239 11.4521 14.6489C11.6771 14.874 11.9823 15.0004 12.3006 15.0004Z" fill="#1B9BEF"/>
</g>
</g>
</svg>
