<svg width="30" height="30" viewBox="0 0 30 30" fill="none" xmlns="http://www.w3.org/2000/svg">
<g id="noun-help-1459308">
<g id="Group">
<path id="Compound Path" d="M15 3C12.6266 3 10.3066 3.70379 8.33316 5.02236C6.35977 6.34094 4.8217 8.21508 3.91345 10.4078C3.0052 12.6005 2.76756 15.0133 3.23058 17.3411C3.6936 19.6688 4.83649 21.807 6.51472 23.4853C8.19295 25.1635 10.3311 26.3064 12.6589 26.7694C14.9867 27.2324 17.3995 26.9948 19.5922 26.0865C21.7849 25.1783 23.6591 23.6402 24.9776 21.6668C26.2962 19.6934 27 17.3734 27 15C27 11.8174 25.7357 8.76515 23.4853 6.51472C21.2348 4.26428 18.1826 3 15 3ZM15 24.7407C13.0646 24.7407 11.1727 24.1663 9.56393 23.0903C7.95519 22.0142 6.70198 20.485 5.96303 18.6961C5.22407 16.9073 5.03261 14.9395 5.4129 13.0417C5.79319 11.144 6.72812 9.40188 8.09927 8.03592C9.47043 6.66996 11.2161 5.74165 13.1153 5.36857C15.0144 4.99548 16.9815 5.19441 18.7675 5.94015C20.5535 6.68589 22.078 7.94489 23.148 9.5577C24.2179 11.1705 24.7851 13.0646 24.7778 15C24.7778 17.5932 23.7476 20.0802 21.9139 21.9139C20.0802 23.7476 17.5932 24.7778 15 24.7778V24.7407Z" fill="#666666"/>
<path id="Path" d="M17.7407 10.1507C16.9006 9.5834 15.9018 9.29804 14.8888 9.33585C14.106 9.31157 13.3333 9.51762 12.6666 9.92844C11.7036 10.5457 11.1975 11.5704 11.1481 13.0025H13.3703C13.3736 12.568 13.5022 12.1436 13.7407 11.7803C13.8785 11.5781 14.068 11.4164 14.2895 11.3122C14.5109 11.208 14.7562 11.165 14.9999 11.1877C15.5925 11.1877 15.9999 11.3482 16.2221 11.6692C16.4466 11.9817 16.5635 12.3586 16.5555 12.7433C16.5582 13.0756 16.4543 13.4001 16.2592 13.6692C16.1359 13.8402 15.9858 13.9903 15.8147 14.1136L15.2592 14.5581C14.8234 14.8486 14.4669 15.2432 14.2221 15.7062C14.047 16.2824 13.9596 16.8817 13.9629 17.484H16.037C16.0343 17.1841 16.0716 16.8851 16.1481 16.5951C16.2376 16.2592 16.4323 15.9607 16.7036 15.7433L17.2592 15.3358C17.6742 15.0413 18.0478 14.6925 18.3703 14.2988C18.7046 13.8089 18.8733 13.2249 18.8518 12.6321C18.8912 12.1583 18.81 11.6823 18.6157 11.2484C18.4214 10.8144 18.1204 10.4368 17.7407 10.1507Z" fill="#666666"/>
<path id="Path_2" d="M16.2222 18.4814H13.9259V20.6851H16.2222V18.4814Z" fill="#666666"/>
</g>
</g>
</svg>
