<svg width="30" height="30" viewBox="0 0 30 30" fill="none" xmlns="http://www.w3.org/2000/svg">
<g id="noun-setting-1835295 1">
<g id="Group">
<path id="Vector" d="M26.5867 17.7333C27.127 17.6807 27.5391 17.2264 27.5391 16.6836V13.3164C27.5391 12.7731 27.1263 12.3186 26.5854 12.2666L24.8215 12.0968C24.6136 11.4042 24.3306 10.7319 23.9829 10.1043L25.0987 8.75859C25.4448 8.34123 25.4181 7.72945 25.0369 7.34385L22.6888 4.96881C22.3048 4.58039 21.6876 4.54934 21.2667 4.89756L19.9129 6.01711C19.2676 5.66232 18.6013 5.3809 17.9207 5.17553L17.7507 3.41426C17.6985 2.87355 17.2441 2.46094 16.7008 2.46094H13.3293C12.786 2.46094 12.3316 2.87355 12.2794 3.41432L12.1096 5.17471C11.4154 5.38254 10.7414 5.66549 10.1125 6.0133L8.76352 4.89762C8.34457 4.55109 7.73086 4.57986 7.34607 4.96406L4.96793 7.3391C4.5825 7.72406 4.55361 8.33924 4.90131 8.75859L6.02109 10.1089C5.66631 10.7529 5.38488 11.4176 5.17939 12.0967L3.41461 12.2666C2.87373 12.3186 2.46094 12.7731 2.46094 13.3164V16.6836C2.46094 17.2269 2.87373 17.6814 3.41455 17.7334L5.17846 17.9032C5.38641 18.5958 5.66936 19.2681 6.01711 19.8957L4.90125 21.2414C4.5535 21.6608 4.58244 22.2759 4.96787 22.6609L7.34602 25.0359C7.73074 25.4201 8.34457 25.449 8.76346 25.1024L10.1172 23.9828C10.7626 24.3376 11.4288 24.619 12.1095 24.8244L12.2794 26.5856C12.3316 27.1263 12.786 27.539 13.3293 27.539H16.7008C17.244 27.539 17.6984 27.1264 17.7506 26.5856L17.9205 24.8252C18.6148 24.6174 19.2887 24.3345 19.9175 23.9866L21.2665 25.1023C21.6855 25.4488 22.2993 25.42 22.684 25.0359L25.0621 22.6608C25.4476 22.2759 25.4764 21.6607 25.1287 21.2413L24.009 19.8909C24.364 19.2466 24.6454 18.5818 24.8509 17.9023L26.5867 17.7333ZM23.9136 15.8744C23.4574 15.9189 23.0821 16.2529 22.985 16.701C22.7825 17.637 22.3957 18.5512 21.8355 19.4183C21.5857 19.8052 21.6157 20.3093 21.9096 20.6638L22.8914 21.8478L21.872 22.8659L20.6844 21.8836C20.3258 21.587 19.8151 21.5604 19.4277 21.8184C18.6208 22.3556 17.6842 22.7498 16.7191 22.9581C16.2704 23.055 15.936 23.4309 15.8919 23.8877L15.743 25.4297H14.2871L14.1383 23.8877C14.0941 23.4309 13.7597 23.055 13.311 22.9581C12.3735 22.7557 11.4577 22.3693 10.5892 21.8097C10.2029 21.5609 9.6999 21.5907 9.34576 21.8836L8.15807 22.8659L7.13877 21.8478L8.12057 20.6638C8.41822 20.3048 8.44477 19.7929 8.18584 19.405C7.64807 18.5994 7.25355 17.6643 7.04502 16.701C6.94793 16.2525 6.57205 15.9182 6.11525 15.8743L4.57031 15.7255V14.2744L6.11525 14.1257C6.57205 14.0817 6.94793 13.7474 7.04502 13.299C7.24764 12.363 7.63441 11.4487 8.19451 10.5817C8.44441 10.1948 8.41447 9.69064 8.12051 9.33615L7.13871 8.15215L8.15801 7.13408L9.3457 8.11635C9.7043 8.41295 10.215 8.43949 10.6024 8.1815C11.4093 7.64432 12.3459 7.25016 13.311 7.0418C13.7596 6.94494 14.0941 6.569 14.1382 6.11221L14.2871 4.57031H15.743L15.8919 6.11227C15.936 6.56906 16.2704 6.945 16.7191 7.04186C17.6567 7.2443 18.5725 7.63066 19.4409 8.19023C19.8272 8.4392 20.3303 8.40932 20.6844 8.11641L21.8672 7.13812L22.8652 8.14752L21.8794 9.33621C21.5818 9.69521 21.5552 10.2071 21.8142 10.595C22.3519 11.4006 22.7464 12.3357 22.955 13.299C23.0521 13.7475 23.4279 14.0818 23.8847 14.1257L25.4297 14.2745V15.7267L23.9136 15.8744Z" fill="#666666"/>
<path id="Vector_2" d="M15 8.99658C11.6895 8.99658 8.99634 11.6898 8.99634 15.0002C8.99634 18.3106 11.6895 21.0038 15 21.0038C18.3104 21.0038 21.0036 18.3106 21.0036 15.0002C21.0036 11.6898 18.3104 8.99658 15 8.99658ZM15 18.8945C12.8527 18.8945 11.1057 17.1475 11.1057 15.0002C11.1057 12.8529 12.8526 11.106 15 11.106C17.1473 11.106 18.8942 12.8529 18.8942 15.0002C18.8942 17.1475 17.1473 18.8945 15 18.8945Z" fill="#666666"/>
</g>
</g>
</svg>
