<svg width="150" height="150" viewBox="0 0 150 150" fill="none" xmlns="http://www.w3.org/2000/svg">
<g id="noun-thumbs-up-218991 1" clip-path="url(#clip0_380_2677)">
<g id="Group">
<path id="Vector" fill-rule="evenodd" clip-rule="evenodd" d="M52.553 73.681C52.8191 71.9117 53.2772 70.9892 53.7325 70.6055C58.8562 66.2878 73.7005 52.6668 77.2637 37.0517C78.127 33.2683 77.5682 29.5588 78.7052 25.8819C79.2737 24.6563 83.822 19.3261 88.9387 27.2926C94.0554 35.2591 87.8016 59.7714 87.8016 59.7714C87.8016 59.7714 86.5229 62.5281 100.205 62.472C102.324 62.4633 105.995 62.472 107.7 62.472C109.974 62.472 118.502 64.0611 117.934 70.802C117.365 77.5429 111.111 78.1557 111.111 78.1557C111.111 78.1557 121.345 79.3813 121.345 85.5094C121.345 91.6375 119.639 94.7015 109.974 94.7015C109.974 94.7015 120.208 95.9271 118.502 103.894C116.797 111.86 107.7 110.022 107.7 110.022C107.7 110.022 113.385 113.884 112.248 118.601C111.111 123.318 108.837 125.342 99.7407 125.955C90.6443 126.568 52.5343 120.867 52.5343 114.126C52.5343 110.45 52.048 82.0101 52.0885 79.6532C52.0885 79.6532 52.1782 76.1728 52.553 73.681Z" fill="#1B9BEF"/>
<path id="Vector_2" d="M30.1262 69.1724H45.6322C46.2543 69.1724 46.7585 69.6766 46.7585 70.2987V115.994C46.7585 116.616 46.2543 117.121 45.6322 117.121H30.1262C29.5042 117.121 28.9999 116.616 28.9999 115.994V70.2987C28.9999 69.6766 29.5042 69.1724 30.1262 69.1724Z" fill="#1B9BEF"/>
</g>
<path id="Vector_3" opacity="0.3" d="M55.9017 43.8575C56.4426 41.8371 56.1654 39.73 55.1215 37.9219C55.119 37.9176 55.1165 37.9132 55.114 37.9089L54.7557 37.2903C53.866 35.7363 53.6605 33.8904 54.178 32.0878C54.6892 30.3082 55.8828 28.7656 57.4613 27.8505C58.9675 26.9381 60.6882 26.6756 62.2928 26.9834C62.0196 28.744 62.3739 30.5335 63.2482 32.0747C63.2912 32.1571 64.307 34.0493 65.7803 34.4912C66.3591 34.6643 66.925 34.6015 67.4631 34.3038C68.0047 34.0042 68.3549 33.5577 68.5043 32.9772C68.8825 31.5053 67.7521 29.6741 67.7098 29.6049C66.7127 27.9597 65.2016 26.8126 63.5049 26.2442C64.0015 24.5572 65.1087 23.1474 66.6385 22.2607C70.3817 20.0906 71.6687 15.2902 69.5116 11.5539C69.3699 11.2926 69.0536 11.2108 68.8055 11.3549C68.5615 11.4963 68.4787 11.8089 68.6201 12.0539C68.6203 12.0563 68.6242 12.061 68.6265 12.0649C70.5012 15.3122 69.3803 19.486 66.1241 21.3738C64.3578 22.3977 63.081 24.0299 62.5148 25.9826C60.6631 25.619 58.6751 25.9164 56.9387 26.9683C55.143 28.0091 53.7785 29.7709 53.1953 31.802C52.6031 33.8633 52.8368 35.9799 53.853 37.771C53.8555 37.7753 53.8579 37.7794 53.8604 37.7838L53.8749 37.8089C53.8772 37.8128 53.8794 37.8167 53.8818 37.8209C53.8853 37.8269 53.8894 37.8341 53.8931 37.8404L54.2297 38.4215C54.2319 38.4251 54.234 38.4288 54.2361 38.4325C55.143 40.0032 55.3836 41.8343 54.9138 43.5897C54.4425 45.3506 53.313 46.8247 51.7333 47.7405C51.4893 47.8819 51.4066 48.1947 51.5479 48.4395L51.5484 48.4403C51.6904 48.6853 52.0033 48.7691 52.2476 48.6274C54.0622 47.5754 55.3603 45.8812 55.9017 43.8575ZM66.8391 30.1399C67.1015 30.5665 67.7374 31.8544 67.5132 32.7208C67.4352 33.0219 67.2565 33.2462 66.9669 33.4064C66.6743 33.5684 66.3817 33.6024 66.0726 33.5103C65.2539 33.266 64.5012 32.2059 64.2021 31.6878C64.1795 31.6486 64.1591 31.6124 64.142 31.5798C64.1399 31.5761 64.1378 31.5724 64.1356 31.5687C63.3728 30.2475 63.0813 28.7424 63.2875 27.253C64.7198 27.7588 65.9921 28.7427 66.8391 30.1399Z" fill="#1B9BEF"/>
<path id="Vector_4" opacity="0.3" d="M133.172 41C132.62 41 132.172 41.4473 132.172 42V44.1924H130C129.448 44.1924 129 44.6396 129 45.1924C129 45.7451 129.448 46.1924 130 46.1924H132.172V48.3848C132.172 48.9375 132.62 49.3848 133.172 49.3848C133.725 49.3848 134.172 48.9375 134.172 48.3848V46.1924H136.345C136.897 46.1924 137.345 45.7451 137.345 45.1924C137.345 44.6396 136.897 44.1924 136.345 44.1924H134.172V42C134.172 41.4473 133.725 41 133.172 41Z" fill="#1B9BEF"/>
<path id="Vector_5" opacity="0.3" d="M44.1724 142C43.6201 142 43.1724 142.447 43.1724 143V145.192H41C40.4478 145.192 40 145.64 40 146.192C40 146.745 40.4478 147.192 41 147.192H43.1724V149.384C43.1724 149.937 43.6201 150.384 44.1724 150.384C44.7246 150.384 45.1724 149.937 45.1724 149.384V147.192H47.3452C47.8975 147.192 48.3452 146.745 48.3452 146.192C48.3452 145.64 47.8975 145.192 47.3452 145.192H45.1724V143C45.1724 142.447 44.7246 142 44.1724 142Z" fill="#1B9BEF"/>
<path id="Vector_6" opacity="0.3" d="M133.172 142C132.62 142 132.172 142.447 132.172 143V145.192H130C129.448 145.192 129 145.64 129 146.192C129 146.745 129.448 147.192 130 147.192H132.172V149.384C132.172 149.937 132.62 150.384 133.172 150.384C133.725 150.384 134.172 149.937 134.172 149.384V147.192H136.345C136.897 147.192 137.345 146.745 137.345 146.192C137.345 145.64 136.897 145.192 136.345 145.192H134.172V143C134.172 142.447 133.725 142 133.172 142Z" fill="#1B9BEF"/>
<path id="Vector_7" opacity="0.3" d="M81 142.154C81 142.518 81.1982 142.854 81.5181 143.03L83.3477 144.036C85.0063 144.95 86.3623 146.314 87.269 147.982L88.2695 149.823C88.4443 150.145 88.7812 150.345 89.1479 150.345C89.5142 150.345 89.8516 150.145 90.0264 149.823L91.0273 147.982C91.9341 146.314 93.29 144.95 94.9487 144.036L96.7783 143.03C97.0981 142.854 97.2964 142.518 97.2964 142.154C97.2964 141.789 97.0981 141.453 96.7783 141.278L94.9487 140.271C93.2905 139.358 91.9346 137.994 91.0273 136.325L90.0264 134.484C89.6763 133.838 88.6187 133.839 88.2695 134.484L87.269 136.325C86.3618 137.994 85.0059 139.358 83.3477 140.271L81.5181 141.278C81.1982 141.453 81 141.789 81 142.154ZM84.3115 142.023C86.3057 140.926 87.936 139.286 89.0259 137.28L89.1479 137.055L89.2705 137.28C90.3604 139.286 91.9907 140.926 93.9849 142.023L94.2222 142.154L93.9849 142.285C91.9902 143.382 90.3599 145.022 89.2705 147.027L89.1479 147.251L89.0259 147.027C87.9365 145.022 86.3062 143.382 84.3115 142.285L84.0742 142.154L84.3115 142.023Z" fill="#1B9BEF"/>
</g>
<defs>
<clipPath id="clip0_380_2677">
<rect width="150" height="150" fill="white" transform="matrix(-1 0 0 1 150 0)"/>
</clipPath>
</defs>
</svg>
