<svg width="24" height="24" viewBox="0 0 24 24" fill="none" xmlns="http://www.w3.org/2000/svg">
<g id="Search">
<g id="Group 1">
<path id="Vector" d="M13.7678 3.33203C9.97344 3.33203 6.86896 6.43651 6.86896 10.2309C6.86896 14.0252 9.97344 17.1297 13.7678 17.1297C17.5622 17.1297 20.6666 14.0252 20.6666 10.2309C20.6666 6.43651 17.5622 3.33203 13.7678 3.33203ZM13.7678 15.405C10.922 15.405 8.59367 13.0766 8.59367 10.2309C8.59367 7.3851 10.922 5.05674 13.7678 5.05674C16.6136 5.05674 18.9419 7.3851 18.9419 10.2309C18.9419 13.0766 16.6136 15.405 13.7678 15.405Z" fill="#666666"/>
<path id="Vector_2" d="M6.78273 16.0087L3.59202 19.1994C3.24708 19.5444 3.24708 20.0618 3.59202 20.4067C3.76449 20.5792 4.0232 20.6654 4.19567 20.6654C4.36814 20.6654 4.62685 20.5792 4.79932 20.4067L7.99003 17.216C8.33497 16.8711 8.33497 16.3536 7.99003 16.0087C7.64509 15.6638 7.12768 15.6638 6.78273 16.0087Z" fill="#666666"/>
</g>
</g>
</svg>
