<svg width="36" height="36" viewBox="0 0 36 36" fill="none" xmlns="http://www.w3.org/2000/svg">
<g id="typcn:delete-outline">
<path id="Vector" d="M18 4.5C10.5555 4.5 4.5 10.557 4.5 18C4.5 25.443 10.5555 31.5 18 31.5C25.4445 31.5 31.5 25.443 31.5 18C31.5 10.557 25.4445 4.5 18 4.5ZM18 28.5C12.2115 28.5 7.5 23.79 7.5 18C7.5 12.21 12.2115 7.5 18 7.5C23.7885 7.5 28.5 12.21 28.5 18C28.5 23.79 23.7885 28.5 18 28.5ZM19.0605 18L23.0295 14.031C23.1694 13.89 23.2479 13.6994 23.2479 13.5007C23.2479 13.3021 23.1694 13.1115 23.0295 12.9705C22.8885 12.8306 22.6979 12.7521 22.4993 12.7521C22.3006 12.7521 22.11 12.8306 21.969 12.9705L18 16.9395L14.031 12.969C13.8895 12.8324 13.7001 12.7568 13.5034 12.7585C13.3068 12.7602 13.1187 12.8391 12.9796 12.9781C12.8406 13.1172 12.7617 13.3053 12.76 13.5019C12.7583 13.6986 12.8339 13.888 12.9705 14.0295L16.9395 18L12.9705 21.969C12.8297 22.1096 12.7505 22.3004 12.7503 22.4995C12.7502 22.6985 12.8291 22.8894 12.9697 23.0303C13.1104 23.1711 13.3012 23.2503 13.5002 23.2504C13.6992 23.2506 13.8902 23.1716 14.031 23.031L18 19.0605L21.969 23.0295C22.0381 23.1012 22.1208 23.1585 22.2122 23.1979C22.3037 23.2373 22.402 23.2582 22.5016 23.2592C22.6012 23.2602 22.7 23.2413 22.7922 23.2037C22.8844 23.1662 22.9682 23.1106 23.0388 23.0403C23.1093 22.97 23.1651 22.8863 23.2029 22.7942C23.2408 22.7021 23.2599 22.6033 23.2592 22.5038C23.2584 22.4042 23.2379 22.3057 23.1987 22.2142C23.1595 22.1226 23.1025 22.0398 23.031 21.9705L19.0605 18Z" fill="#E92626"/>
</g>
</svg>
