<svg width="250" height="250" viewBox="0 0 250 250" fill="none" xmlns="http://www.w3.org/2000/svg">
<path id="Vector" d="M125 0C56.0526 0 0 56.0526 0 125C0 193.947 56.0526 250 125 250C193.947 250 250 193.947 250 125C250 56.0526 193.947 0 125 0ZM125 71.5789C146.579 71.5789 164.211 89.2105 164.211 110.789C164.211 132.368 146.579 150 125 150C103.421 150 85.7895 132.368 85.7895 110.789C85.7895 89.2105 103.421 71.5789 125 71.5789ZM56.5789 200.789V195C56.5789 178.421 70 164.737 86.8421 164.737H163.158C179.737 164.737 193.421 178.158 193.421 195V200.789C175.263 217.105 151.316 227.105 125 227.105C98.6842 227.105 74.7368 217.105 56.5789 200.789Z" fill="#DDDDDD"/>
</svg>
