<svg width="40" height="40" viewBox="0 0 40 40" fill="none" xmlns="http://www.w3.org/2000/svg">
<path id="Vector" d="M20 40C23.9556 40 27.8224 38.827 31.1114 36.6294C34.4004 34.4318 36.9638 31.3082 38.4776 27.6537C39.9913 23.9992 40.3874 19.9778 39.6157 16.0982C38.844 12.2186 36.9392 8.65492 34.1421 5.85787C31.3451 3.06082 27.7814 1.15601 23.9018 0.384303C20.0222 -0.387401 16.0009 0.00866577 12.3463 1.52242C8.69181 3.03617 5.56824 5.59962 3.37061 8.8886C1.17298 12.1776 0 16.0444 0 20C0 25.3043 2.10714 30.3914 5.85786 34.1421C7.71504 35.9993 9.91982 37.4725 12.3463 38.4776C14.7728 39.4827 17.3736 40 20 40ZM12.586 18.586C12.7716 18.4002 12.9921 18.2528 13.2347 18.1523C13.4773 18.0517 13.7374 17.9999 14 17.9999C14.2626 17.9999 14.5227 18.0517 14.7653 18.1523C15.0079 18.2528 15.2284 18.4002 15.414 18.586L18 21.1718L24.586 14.586C24.9632 14.2217 25.4684 14.0201 25.9928 14.0247C26.5172 14.0292 27.0188 14.2396 27.3896 14.6104C27.7605 14.9812 27.9708 15.4828 27.9753 16.0072C27.9799 16.5316 27.7783 17.0368 27.414 17.414L19.414 25.414C19.2284 25.5998 19.0079 25.7472 18.7653 25.8477C18.5227 25.9482 18.2626 26 18 26C17.7374 26 17.4773 25.9482 17.2347 25.8477C16.9921 25.7472 16.7716 25.5998 16.586 25.414L12.586 21.414C12.4002 21.2284 12.2528 21.008 12.1523 20.7653C12.0517 20.5227 11.9999 20.2626 11.9999 20C11.9999 19.7374 12.0517 19.4773 12.1523 19.2347C12.2528 18.9921 12.4002 18.7716 12.586 18.586Z" fill="#1B9BEF"/>
</svg>
